<?xml version="1.0" encoding="UTF-8"?><svg id="Layer_1" xmlns="http://www.w3.org/2000/svg" viewBox="0 0 326.02 90"><defs><style>.cls-1{fill:#016699;stroke-width:0px;}</style></defs><path class="cls-1" d="m69.08,6.63c-.21-.12-.41-.21-.64-.17-2.28-1.45-4.66-2.63-7.15-3.56h-.02s-.08-.04-.12-.06c-.17-.25-.39-.42-.66-.46-.02-.04-.06-.04-.08-.04-.93-.33-1.88-.62-2.82-.89-.25-.06-.48-.06-.66.02-2.3-.6-4.7-1.02-7.17-1.24-1.55-.15-3.11-.23-4.7-.23h-1.55c-.27,0-.5.02-.73.06-.06,0-.14.02-.19.04-.1-.02-.21-.04-.33-.04-.19.02-.37.02-.54.04-2.55.17-5.03.54-7.44,1.1-.21-.1-.41-.1-.64-.04-1.06.25-2.05.54-3.09.91-.23.04-.39.17-.52.35-.1.06-.23.08-.33.13l-.04.04c-2.98,1.06-5.8,2.48-8.49,4.2-.23-.02-.43.04-.62.17-1.12.7-2.17,1.47-3.21,2.3-.21.17-.31.37-.35.58-.27.21-.52.43-.79.66-.97.81-1.91,1.68-2.84,2.61-.66.66-1.28,1.33-1.88,1.99-.21.06-.39.17-.54.33-1.78,1.97-3.31,4.06-4.62,6.23-.14.25-.19.48-.14.71t-.02.04l-.02.02c-1.2,2.01-2.22,4.08-3.04,6.21-.21.15-.35.31-.44.56-.95,2.51-1.59,5.14-2.03,7.87v.08s-.04.06-.04.08c-.39,2.42-.58,4.95-.58,7.58s.23,5.14.62,7.62v.04c.83,5.26,2.57,10.17,5.22,14.73.02,0,.02.02.06.04.02.02.02.06.04.08.87,1.49,1.84,2.94,2.9,4.37.02.25.1.48.29.68,1.18,1.49,2.49,2.96,3.93,4.39v.02c.93.89,1.86,1.76,2.84,2.63.04.02.08.04.08.06,4.14,3.5,8.62,6.11,13.51,7.89l.04.02s.06,0,.1.02c1.53.54,3.05,1,4.62,1.37.39.1,1.3.27,2.69.52h.02c2.59.44,5.24.68,8.02.68h.06c1.24,0,2.42-.06,3.62-.17h.02c2.15-.23,4.27-.52,6.34-.87h.02c1.84-.41,3.63-.93,5.39-1.53.04,0,.08,0,.12-.02.02-.02.06-.02.08-.04,4.87-1.72,9.34-4.37,13.46-7.89l.04-.04v-.02c.99-.85,1.93-1.72,2.86-2.61,2.9-2.94,5.32-6.07,7.27-9.38l.02-.04.06-.06c.81-1.39,1.49-2.8,2.15-4.25.1-.25.15-.5.08-.73,1.3-3.15,2.26-6.42,2.84-9.88v-.12c.35-2.44.56-4.95.56-7.52s-.21-5.2-.62-7.64v-.04c-.41-2.69-1.06-5.24-1.95-7.73-.08-.27-.23-.46-.44-.58-.72-1.91-1.57-3.77-2.59-5.57.1-.27.1-.52,0-.79-.1-.31-.31-.56-.62-.7-1.04-1.76-2.2-3.42-3.52-4.99-.17-.21-.35-.31-.58-.35-.89-1.08-1.82-2.11-2.84-3.15-.04-.06-.1-.13-.12-.17h-.02c-.62-.58-1.24-1.18-1.84-1.74h-.02c-.21-.21-.41-.41-.64-.6-.04-.23-.15-.44-.35-.6-1.55-1.31-3.13-2.49-4.76-3.54Zm-1.57,3.42c-.02.15.02.29.12.39.1.1.21.17.35.19h.1s.04.04.06.06c.31.33.79.72,1.43,1.16l.02.02h0c.04.1.1.21.21.29.39.31.7.58.93.79l-.21.21c-.21.04-.35.15-.52.31l-.04.06c-.43-.27-.89-.62-1.28-.99-.6-.62-1.1-1.08-1.49-1.37-.02-.02-.06-.04-.08-.06-.37-.5-.83-.93-1.35-1.24-.58-.33-1.33-.7-2.22-1.02h-.02c-.99-.35-1.64-.46-1.93-.35-.14-.04-.58-.29-1.24-.77-.12-.08-.25-.1-.39-.08-.15.02-.25.08-.33.21-.08.1-.1.23-.08.37.02.17.08.27.21.37,1.04.73,1.74,1.04,2.07.89.19-.02.64.08,1.37.35.19.04.39.12.58.21-.06.13-.08.29-.02.46.04.15.15.27.31.35,1.24.6,2.01,1.03,2.38,1.3.08.06.19.17.29.23.31.46.68.89,1.08,1.3v-.02c.35.37.77.7,1.26.93l-.02.04h-.04c-.48-.31-.95-.64-1.41-.91t-.04-.04l-3.94-2.32c-.23-.14-.48-.21-.75-.17l-1.68-1.01s-.02,0-.04-.02c-.56-.31-1.1-.6-1.66-.85-.04-.1-.1-.17-.15-.21.02-.21.02-.37-.06-.52l.48-1.24c.08-.23.08-.44.02-.64l.56-1.58c.23-.14.37-.33.46-.58l.02-.04c2.32.89,4.56,2.01,6.69,3.36.06.21.21.37.41.52,1.35.85,2.67,1.82,3.98,2.9-.06.1-.1.23-.12.37l-.27.31c-.19-.15-.5-.41-.93-.77-.1-.08-.21-.12-.33-.14t-.06-.04c-.6-.42-1.01-.77-1.33-1.08-.23-.21-.39-.35-.52-.39-.23-.1-.41-.1-.54.02-.19.06-.29.21-.31.48Zm8.02,4.27s.04.06.08.08c.99,1.02,1.95,2.07,2.84,3.11,0,.21.06.41.23.6,1.14,1.39,2.2,2.86,3.13,4.39l-.66.39s-.04-.06-.06-.08c-.15-.23-.33-.54-.6-.89-.06-.1-.1-.25-.14-.35-.35-.75-.7-1.22-1.06-1.45-.23-.19-.48-.43-.7-.75-.1-.12-.21-.19-.37-.21-.12-.02-.25,0-.35.08-.12.08-.19.19-.21.33-.02.15,0,.27.08.41.31.41.62.75.95.97.1.06.21.19.31.37-.02.02-.04.06-.04.13-.04.19-.02.35.08.5.44.68.77,1.18.99,1.53h.02c-.23-.02-.46.04-.66.17l-.33.19c-.31-.41-.58-.83-.79-1.22v.02c-.39-.77-.83-1.41-1.35-1.91h-.02c-.46-.39-.79-.79-1.01-1.18v.02c-.27-.48-.64-1.01-1.1-1.62-.1-.15-.23-.23-.41-.25h-.04c-.21-.25-.41-.41-.6-.62h-.02c-.27-.21-.39-.39-.44-.5-.06-.12-.14-.23-.27-.29-.17-.04-.29-.08-.41-.02-.15.04-.23.12-.29.29-.06.1-.08.23-.02.37.04.19.27.5.72.89v.02c.23.25.5.5.75.79,0,.02,0,.04.04.06.44.58.77,1.08,1.02,1.51h.02c.31.5.7.95,1.22,1.43.41.42.79.93,1.1,1.55h.02c.21.42.48.83.79,1.26l-.17.08c-.48-.72-.99-1.43-1.53-2.07t-.02-.02l-.89-1.1c-.06-.08-.14-.13-.23-.21l-.35-.39c-.14-.14-.29-.25-.5-.31l-1.78-2.11-.02-.02c-.64-.75-1.31-1.43-1.95-2.15l.33-.41v-.04s.04-.04.06-.04l.12-.15s-.02.08,0,.15c.02.14.08.25.19.33.04.02.08.06.1.08.06.1.12.19.23.23.12.06.25.06.39.02.19-.06.31-.17.33-.33.06-.1.06-.25,0-.39-.02-.06-.08-.13-.17-.21-.06-.06-.15-.12-.27-.23-.12-.08-.25-.1-.39-.08h-.04l.19-.21c.17-.21.25-.43.25-.66l.64-.79s.06-.06.1-.1l.48-.56c.21-.02.37-.12.54-.29.04.02.08.06.12.1v.02c.6.52,1.18,1.08,1.78,1.68t.02.04Zm-7.19,2.67l.02.02.02.02c.08.08.17.17.27.23.75.81,1.47,1.6,2.2,2.4l.04.02,1.7,2.07c.02.25.12.48.33.7l.52.62s.06.04.08.06l.75.93v-.02c.6.77,1.2,1.6,1.78,2.49.06.1.12.19.23.27.04.1.08.19.14.29.19.46.39.87.62,1.28.02.1.02.21.08.31l2.32,6.25-.02-.04c.35,1.1.68,2.24.99,3.38.02.06.04.1.06.17.04.02.04.06.04.08.02.19.04.37.1.52.04.87.06,1.76.15,2.61v6.25c-.08.83-.1,1.66-.15,2.49-.1.19-.15.39-.1.66-.04,0-.04.02-.06.06-.02.06-.04.15-.06.19-.15.68-.31,1.35-.5,1.99l-3.15,8.26c-.1.27-.21.58-.31.85-.1.14-.17.29-.23.46h-.02c-.06.06-.1.1-.15.17-.64.93-1.26,1.82-1.91,2.67l-.85,1.04s-.02,0-.02.02l-.06.04-.75.87s-.02,0-.02.02c-.52.6-1.02,1.18-1.53,1.76-.02.02-.06.04-.06.06t-.02.04c-.08.06-.12.15-.19.19-.33.39-.58.68-.77.91l-.58.64c-.31.29-.6.56-.87.85-.37.1-.6.29-.66.56-.48.33-.95.62-1.39.89v.04l-5.92,3.5c-.93.48-1.88.95-2.82,1.43-.02.04-.04.04-.08.04-.06.02-.1.04-.15.06-.02,0-.06,0-.08.04-.1,0-.21.04-.31.1-.54.1-1.06.23-1.55.39t-.04.02h-.06l-.02.02-5.47,1.06c-1.45.23-2.94.42-4.52.58-.08,0-.14,0-.21.02h-.08s-.1-.02-.17,0h-.02c-.06-.02-.1-.02-.17-.02l-4.33-.56c-.06-.02-.12-.02-.17-.02h-.06l-.43-.08s-.1-.02-.15-.02c-.21-.06-.39-.08-.58-.1-2.4-.5-3.77-.77-4.14-.81l.12.02-.12-.02h-.04c-.06-.02-.08-.04-.15-.04-.58-.21-1.16-.33-1.72-.48-.08-.02-.17-.06-.27-.06-.02,0-.04,0-.08-.04t.06.04c-.19-.08-.39-.1-.6-.06-.83-.43-1.7-.87-2.53-1.28l-5.96-3.58c-.46-.25-.91-.54-1.35-.85-.06-.17-.14-.31-.29-.46-.06-.06-.1-.1-.14-.12-.06-.06-.12-.12-.19-.19-.6-.58-1.14-1.2-1.68-1.8l-.02-.02-4.1-4.7c-.6-.85-1.2-1.7-1.8-2.57-.04-.08-.08-.15-.15-.21h-.02c-.04-.1-.08-.21-.15-.27-.02-.02-.04-.04-.06-.1-.15-.31-.29-.62-.39-.93l-3.13-8.26.02.04c-.23-.64-.41-1.31-.52-1.97-.02-.17-.04-.29-.12-.39t0,0c0-.23,0-.44-.1-.58-.02-.85-.08-1.66-.12-2.49v-6.25c.04-.89.1-1.78.12-2.67.06-.1.08-.23.1-.37v-.02c.06-.1.1-.23.12-.33.29-1.12.6-2.26.95-3.36l-.02.04,2.47-6.5c.19-.44.37-.89.54-1.33.08-.1.12-.21.19-.29.02-.02.02-.04.04-.06t.02-.02c.06-.06.1-.13.14-.19.6-.89,1.2-1.74,1.82-2.51t.02-.02l.64-.85s0-.02.02-.02l.83-.91c.23-.23.33-.5.35-.81l.99-1.14s.04-.06.08-.1l.41-.5c.62-.68,1.22-1.35,1.82-1.99.21-.06.39-.17.58-.31.02,0,.04,0,.06-.04.08-.06.17-.17.23-.23.06-.04.12-.08.19-.12t.04-.02c.6-.41,1.18-.79,1.74-1.14h-.02l.23-.12.08-.04.02-.02,1.66-.97c.23-.14.37-.31.48-.54l3.67-2.15v.02c.7-.39,1.45-.79,2.17-1.14h.27l.02.06-.08.04s.06-.02.08-.02l-.08.02s.06,0,.08-.02v.02s.04-.02.08-.04c.02-.02.04-.02.04-.02.02-.02.06-.04.08-.04t.02-.02h0l.1-.02c.12-.04.25-.08.37-.12.37-.08.75-.17,1.12-.27.02,0,.04,0,.08-.02.02,0,.04,0,.06-.02h.02l4.66-.81c.23-.04.44-.15.62-.27l4.43-.77s.12-.04.19-.06h.29c.14.06.31.1.5.1.21,0,.39-.04.56-.15l4.39.77s.06.1.1.15c.21.19.43.29.72.29.23,0,.44-.06.62-.19l1.97.33c.17.17.39.27.62.31l1.51.29s.1.02.17.02l.12.02h-.02c.21.04.41.08.64.14l.52.13c.12.04.25.08.39.12t.04.02c.06.02.12.04.23.08.08.04.19.08.33.15.21.1.41.12.62.1.52.27,1.08.54,1.6.83l1.76,1.04c.1.21.25.33.43.46l3.11,1.88h0l.04.02.79.46-.04-.02c.46.31.95.62,1.47.93h.02c.19.1.37.14.56.17l.02.04h.02Zm12.95,8.31c.02.14.08.25.21.37.1.06.17.08.23.06-.06.08-.1.17-.06.27.02.14.06.25.17.35.1.1.25.14.39.12h.02c-.02.06-.06.14-.1.25-.04.13-.02.25.04.39.02.04.04.08.06.1v.23c.06.62.35,1.2.91,1.72.1.1.23.15.37.15s.25-.04.35-.15c.1-.1.15-.23.15-.37s-.04-.27-.15-.37c-.35-.33-.54-.66-.58-1.06-.02-.31-.06-.5-.08-.6-.1-.35-.25-.5-.43-.43-.06-.04-.12-.06-.17-.06.39-.39.23-.87-.48-1.41-.04-.04-.1-.06-.1-.08l.99-.58c.93,1.72,1.76,3.48,2.42,5.3-.04.19-.02.39.04.6.68,2.03,1.26,4.16,1.66,6.36l-.52.06c-.02-.35-.1-.64-.27-.87-.19-.31-.39-.89-.6-1.76-.04-.15-.12-.25-.25-.31-.12-.08-.27-.1-.39-.06-.15.02-.25.1-.31.23-.08.12-.1.25-.08.39.27,1.04.52,1.74.77,2.11.06.1.1.27.1.46l-1.04.19c-.06-.02-.14-.02-.19-.06-.08-.37-.15-.77-.19-1.14-.1-.71-.31-1.39-.62-2.03-.02-.04-.04-.08-.06-.1-.02-.02-.02-.06-.04-.08h.02c-.21-.54-.44-1.06-.68-1.57h0c-.25-.52-.56-1.18-.89-1.99-.39-.95-.73-1.51-1.02-1.68v-.02c-.1-.12-.17-.66-.27-1.68-.04-.15-.08-.27-.21-.35-.06-.06-.14-.08-.21-.1l.41-.23c.23-.15.37-.35.48-.58l.19-.08v.1Zm-1.95,2.13l-.02-.04v-.02c-.1-.21-.21-.41-.29-.62l.56-.33c-.02.06-.04.14-.02.23.14,1.49.39,2.3.72,2.46.15.15.39.58.66,1.22.35.83.64,1.49.91,2.01.21.46.37.91.58,1.35-.02.02-.02.04-.02.06-.08.15-.04.31.02.46.27.54.44,1.12.52,1.66h-.02c.04.35.1.71.17,1.08l-.39.06c-.25-.95-.54-1.93-.89-2.88v-.04l-2.36-6.42s-.04-.08-.04-.1l-.08-.12Zm5.32,12.3c.02-.1,0-.23-.04-.33-.02-.04-.06-.12-.1-.19.15-.06.29-.15.41-.25l2.55-.46c.29,2.03.43,4.14.43,6.32s-.12,4.18-.37,6.17c-.17-.12-.35-.21-.58-.25h-.1c.06-.44.1-.91.12-1.43.02-.81.14-1.45.35-1.93v.04c.27-.5.31-1.06.12-1.7,0-.19-.02-.39-.04-.58v.02c-.1-.7-.25-1.22-.46-1.57-.1-.25-.08-.56.04-.95.04-.14.02-.27-.04-.39-.06-.15-.17-.23-.29-.27-.15-.04-.27-.02-.39.04-.14.06-.23.17-.27.31-.25.75-.25,1.31.04,1.74.08.17.12.35.21.6-.14.08-.23.21-.29.37-.04.15-.02.31.06.46.27.52.33.97.19,1.35v.02c-.29.6-.46,1.39-.48,2.4-.02.44-.04.85-.1,1.26l-.95-.17c.02-.39.04-.87.04-1.39,0-.44,0-.81.06-1.12.02-.12.04-.23.1-.31v.02c.15-.25.25-.56.25-1.01.21-.56.21-1.18-.06-1.93-.14-.35-.19-.62-.14-.79.1-.14.1-.31.08-.45-.04-.21-.15-.31-.29-.41-.02,0-.06,0-.1-.04,0-.39.08-.91.19-1.57.02-.15-.02-.29-.1-.39-.08-.1-.19-.17-.33-.21-.17-.02-.31,0-.41.1-.1.08-.19.21-.21.35-.19,1.35-.25,2.17-.17,2.53.02.1.04.27.06.41.02.17.06.33.12.58.04.23.1.52.19.85.02.1.04.19.06.27-.02.1-.06.23-.1.33v.02c-.29.5-.43,1.43-.46,2.76,0,.45,0,.85-.02,1.2l-.27-.04c.04-.68.08-1.37.12-2.05v-6.59c-.04-.68-.08-1.35-.12-2.03l.35-.06c-.02.08-.04.19-.02.29,0,.1.08.29.23.52.06.1.17.19.31.23.15.06.27.02.41-.04.1-.08.17-.19.23-.31.02-.15.02-.25-.02-.35Zm-2.38,14.44s.02-.02.02-.04c.17-.52.31-1.04.43-1.55l.54.1h-.02c-.1.1-.15.23-.15.37.04,1.06-.02,1.74-.17,2.05h-.02c-.23.41-.43,1.04-.6,1.84-.08.37-.21.7-.39,1.01-.12.02-.23.1-.33.21-.85,1.08-1.18,1.93-.97,2.59v.04c-.04.48-.1.89-.25,1.24t-.02.04c-.19.37-.44.75-.77,1.14l-.6-.35c.06-.1.1-.25.17-.39v-.02l3.13-8.29Zm1.02,5.39s-.04.1-.06.14c-.31.6-.48,1.04-.54,1.31v.04c-.06.27-.31.75-.77,1.47h0c-.31.5-.56,1.02-.83,1.57l-.41-.23c.35-.44.62-.85.81-1.24v.04c.39-.83.5-1.55.33-2.19v.02c-.02-.37.21-.89.75-1.53.02-.06.06-.1.08-.12.31-.5.54-1.04.68-1.66.15-.68.31-1.22.5-1.55h0c.25-.41.35-1.28.31-2.61,0-.06-.02-.14-.04-.21l2.44.41c.23.04.46.02.66-.06-.56,2.9-1.39,5.7-2.48,8.35-.21.12-.37.31-.5.56-.43.97-.93,1.99-1.45,2.96l-.58-.33c.25-.52.52-1.06.81-1.55v.04c.56-.93.85-1.57.91-1.91.06-.27.27-.7.6-1.3.06-.17.08-.31.04-.5-.04-.02-.04-.08-.06-.13.19-.41.37-.93.6-1.49l-.02.02c.41-1.01.54-1.66.35-1.93.06.02.12,0,.21-.1.1-.1.12-.23.12-.37-.02-.15-.06-.27-.17-.37-.1-.1-.25-.15-.37-.1-.14,0-.29.06-.39.17-.46.56-.6.99-.33,1.3t.02.04c-.02.06-.17.39-.41.97-.31.83-.58,1.49-.81,2.07Zm-8.95,9.76l-.02.04,1.8-2.07s.06-.06.08-.06c.52-.73,1.02-1.45,1.53-2.17l.5.29c-.08.02-.14.08-.21.17-.81,1.14-1.28,1.86-1.47,2.15l-.02.02c-.15.25-.41.6-.81,1.03-.1.1-.14.23-.14.37s.06.27.17.37c.1.08.23.15.37.15s.27-.08.37-.19c.5-.52.81-.93.97-1.24.19-.29.62-1,1.41-2.09.06-.1.1-.21.08-.35l2.55,1.45c-1.72,2.78-3.83,5.39-6.28,7.85-.56.58-1.14,1.14-1.74,1.68l-.29-.35c.62-.46,1.04-.89,1.22-1.31.14-.31.41-.58.79-.89.06-.08.15-.14.25-.21l.08-.08s.06-.02.1-.06c.77-.56,1.31-1.12,1.59-1.68t.02-.02c.21-.44.58-.89,1.02-1.35.1-.12.17-.29.17-.44,0-.1-.04-.19-.04-.27.1-.15.23-.25.37-.35.44-.35.73-.68.91-1.02.06-.12.08-.25.04-.39-.04-.15-.12-.25-.25-.31-.12-.06-.25-.08-.39-.04-.15.04-.25.12-.31.25-.12.23-.33.46-.64.7h-.04c-.41.33-.77.81-1.14,1.35-.1.19-.21.39-.35.56-.1.15-.23.31-.33.5-.15.23-.31.46-.46.68h-.02s-.04.08-.06.12c-.23.23-.5.46-.81.68-.72.52-1.24,1.06-1.53,1.57-.1.12-.21.25-.27.41-.21.17-.44.37-.75.62l-.56-.68c.52-.39.93-.83,1.26-1.28.41-.62.75-1.02.97-1.24.29-.25.58-.5.87-.75.12-.12.19-.27.21-.39.17-.21.37-.46.6-.73.1-.1.15-.21.12-.37-.02-.15-.08-.25-.19-.35-.1-.1-.23-.15-.37-.13-.15.02-.25.08-.35.19-.23.27-.43.5-.6.68-.08.02-.19.08-.23.12-.31.27-.6.5-.89.79-.31.27-.7.75-1.18,1.45h-.02c-.27.39-.6.75-1.01,1.05l-.29-.33c.1-.12.19-.21.29-.29t.04-.04s0-.02.02-.04l.62-.68s.04-.04.06-.06c.14-.19.39-.48.73-.85.06-.1.12-.19.19-.25.06-.06.1-.14.17-.21.5-.56,1.01-1.14,1.51-1.7ZM54.31,4.68c.48.08.83.12,1.04.19.02.04.08.1.1.12.17.19.6.33,1.33.43.39.06.93.21,1.55.48l-.1.23c-.19.1-.31.29-.39.52l-.02.06c-.58-.15-1.14-.35-1.68-.58-.77-.33-1.53-.52-2.34-.58-.41-.1-.85-.17-1.35-.23h-.1c-.08-.04-.17-.08-.23-.14-.37-.48-1.26-.58-2.73-.31-.27-.04-.52-.06-.75-.06-.48.02-.89.02-1.26.06-.08,0-.12,0-.21.04-.1-.04-.21-.1-.31-.08-.1.04-.23.04-.35,0-.17-.02-.27,0-.39.08t-.06.06v-.66c0-.23-.06-.44-.21-.62v-.1c.08.06.19.1.29.13.37.02.62.04.79.02.14-.02.25-.08.35-.19.08-.1.1-.23.1-.37-.02-.15-.1-.27-.21-.35-.1-.1-.21-.14-.35-.12-.15.02-.31,0-.58-.02-.12-.02-.29.02-.39.12v-1.12c1.28.02,2.53.08,3.75.21h.02c2.36.21,4.62.6,6.84,1.2.15.19.33.31.56.37.62.17,1.22.35,1.82.54-.06.19-.06.35,0,.56l-.06.14c-.72-.27-1.35-.43-1.8-.5-.35-.06-.58-.12-.66-.15-.12-.12-.27-.19-.46-.17-.02,0-.06,0-.08.02-.29-.08-.72-.17-1.28-.25-.17-.02-.27,0-.37.08-.12.08-.21.19-.21.33-.02.14,0,.27.08.39.08.1.19.19.33.21Zm-4.29,1.35h.04-.02c.39.1.87.21,1.47.29.43.29,1.06.46,1.91.48.25.02.5.04.75.06.02.02.04.04.06.06l.04.02c.56.39,1.18.66,1.97.79.37.06.75.1,1.12.17v.04c-.1.06-.19.15-.25.25-.23-.06-.48-.13-.7-.19-.04-.02-.08-.02-.12-.02l-.27-.04c-.06-.02-.12-.02-.19-.02h-.04l-1.37-.25c-.23-.04-.46-.02-.7.08l-7.66-1.32v-.71c.08.08.19.1.29.13.21.02.41.06.62.02.06,0,.1-.02.19-.04.08.04.19.08.29.08.35-.04.75-.04,1.2-.06h.08c.04.06.1.12.17.19.14.1.29.12.48.1.23-.06.43-.08.66-.1Zm-11.56-.85h0c-.31.1-.91.23-1.84.41-.46.1-.87.17-1.26.25-.56.02-1.16.17-1.76.39-.06.02-.12.04-.19.08-.39.1-.77.23-1.16.33l-.23-.64s-.02-.08-.02-.1c.25-.06.56-.1.91-.19.93-.23,1.51-.48,1.74-.72l-.02.02c.19-.12.52-.23,1.06-.33.17-.02.27-.1.35-.23.04-.1.1-.23.06-.37-.02-.15-.1-.27-.23-.33-.1-.08-.21-.1-.35-.08-.48.08-.89.19-1.16.29-.1-.06-.23-.06-.35-.04-.7.1-1.22.17-1.57.19-.31.02-.7.17-1.16.46l-.17-.48s.08-.02.1-.04c.95-.33,1.95-.62,2.92-.85.23-.06.44-.19.6-.37,2.26-.54,4.64-.91,7.08-1.06.19,0,.37,0,.58-.04.08-.02.17-.04.23-.06.14.04.27.06.39.04.12-.02.29-.04.48-.04h.68v1.12c-.06-.06-.17-.1-.27-.12-.06-.02-.17-.02-.29-.02s-.31.02-.58.08c-.12.02-.25.08-.33.21-.08.1-.1.25-.08.39.04.15.08.25.21.33.1.06.27.1.39.08.17-.04.27-.06.37-.06.04.02.12.04.21.04.14,0,.25-.04.37-.15v-.02.15c-.14.19-.23.39-.23.62v.68s0-.02-.02-.02c-.1-.1-.23-.17-.39-.17-.12.02-.25.02-.31.02h-.15s-.06,0-.06.04h-.04.02c-.08,0-.1,0-.12.02h-.04l-.02.02c-.08-.04-.14-.04-.23-.04-.37,0-.75.02-1.14.06-.12.04-.25.04-.35.04-.1-.06-.23-.1-.37-.08-1.2.08-1.95.19-2.26.29Zm-4.89,2.82c-.19.04-.35.08-.54.15-.06-.15-.14-.25-.23-.35.48-.15.93-.29,1.41-.39.62-.14,1.26-.29,1.99-.44.66.02,1.37-.08,2.09-.31.58-.19,1.1-.33,1.57-.44.25,0,.58-.06.93-.08.12-.02.23-.06.33-.12.14,0,.27,0,.41-.04.37-.04.75-.06,1.06-.06.1,0,.19-.04.23-.08.04.04.14.08.31.04h.08c.08,0,.21,0,.39-.02.12-.02.23-.04.33-.15v-.04.83h0c-.1-.02-.21,0-.29.02l-4.37.73c-.23-.1-.5-.12-.72-.08l-4.56.77c-.08.02-.14.02-.21.04-.04,0-.08,0-.12.02-.04,0-.08,0-.1.02Zm9.65-2.15s.06-.02.08-.02l-.02.02h-.06Zm-21.11,3.79c-.14-.08-.27-.06-.39,0-.06.02-.27.17-.58.43-.29.25-.64.56-1.14.97h-.02s-.04.02-.06.04c-.1-.02-.19-.02-.29,0-.64.15-1.08.33-1.35.54t-.04-.02l-.31-.37s.08-.08.12-.1c.21-.02.39-.08.56-.23.99-.79,2.01-1.51,3.05-2.19.21-.15.35-.31.44-.54,2.34-1.51,4.78-2.75,7.35-3.73l.58,1.59c-.06.23-.06.46.02.68l.6,1.62c-.06.23-.06.48.04.72l.04.12c-.64.31-1.28.66-1.93,1t-.02.02l-3.67,2.15c-.23-.02-.46.04-.68.19l-1.91,1.1c-.06.04-.12.06-.17.1-.37.25-.75.5-1.14.77l-.08-.08c-.08-.06-.1-.12-.19-.16.08-.06.17-.12.23-.21.23-.14.46-.27.7-.37h-.02c.77-.39,1.37-.81,1.86-1.28.39-.39.85-.71,1.43-.91.75-.27,1.33-.68,1.76-1.2h-.02c.33-.39.68-.64,1.02-.79.46-.17,1.18-.46,2.24-.87.12-.06.21-.12.27-.27s.06-.27,0-.39c-.06-.15-.14-.23-.27-.29-.15-.06-.27-.06-.39,0-1.04.42-1.76.73-2.17.85h-.02c-.5.19-.99.54-1.45,1.08-.04.06-.08.1-.12.14-.06,0-.1-.04-.17-.06-.17-.04-.33-.02-.48.06-1.39.81-2.24,1.31-2.51,1.51t-.02.02c-.27.19-.68.5-1.24.91h-.02c-.44.35-.95.77-1.53,1.22l-.56-.66c.44-.31.85-.6,1.18-.91v.02c.52-.44.89-.75,1.16-.97.21-.19.33-.27.37-.29.12-.06.21-.17.27-.31.04-.17.04-.29-.02-.41-.06-.12-.17-.21-.31-.23Zm-7.6,4.68l.02-.02c.68-.7,1.41-1.35,2.13-1.97l.27.33c.04.23.1.46.27.64l.04.08-.02-.02c-.14,0-.29.02-.39.12-.46.39-.85.79-1.1,1.1v.02c-.25.27-.6.62-1.08,1.06-.1.08-.17.21-.19.35,0,.14.04.27.14.37.08.1.21.15.35.19.15,0,.27-.04.37-.15.54-.48.95-.87,1.18-1.18l-.02.02c.23-.27.58-.6,1.01-.97.1-.1.17-.21.19-.37v-.04l1.06,1.26s-.08-.04-.15-.06c-.14-.04-.27-.02-.39.04-.27.14-.43.25-.48.31-.14.14-.21.25-.19.35-.02.21.04.37.21.5.06.04.14.08.27.08.06.02.17,0,.31-.04.15-.04.25-.12.31-.25h.02s.02-.02.04-.02c.12-.08.21-.19.25-.33.02-.04.02-.08.02-.12.06.14.12.27.23.42l.19.25c-.64.66-1.26,1.35-1.86,2.05t-.04.04l-.48.56s0,.02-.02.04l-1.06,1.26c-.19.08-.37.19-.52.33l-.83.91s-.06.08-.08.08c-.02.02-.04.04-.06.1l-.06.04-.64.81h-.02c-.54.64-1.04,1.33-1.49,2.01h-.02c-.15-.06-.27-.12-.37-.14.23-.44.43-.89.62-1.37.21-.52.48-.97.75-1.35.29-.31.58-.62.91-1.03.31-.35.62-.68.89-1.02v-.02c.31-.35.58-.56.85-.62.15-.04.29-.13.39-.27.1-.15.13-.29.1-.46-.04-.06-.06-.12-.06-.17.31-.35.54-.56.7-.64.21-.08.33-.12.46-.19.12-.04.21-.14.27-.25.06-.17.06-.29,0-.41-.06-.15-.14-.21-.27-.29-.14-.06-.27-.06-.43,0-.1.04-.23.1-.42.19-.29.1-.66.41-1.22,1.04h-.02c-.12.15-.25.31-.37.46-.31.19-.6.45-.91.83h-.02c-.39.48-.87.97-1.37,1.51h-.02c-.54.56-1.01,1.3-1.37,2.22-.19.48-.39.91-.62,1.35l-.77-.46c.19-.27.52-.74,1.04-1.43.02-.04.02-.08.04-.1.25-.29.48-.54.73-.79.41-.46.64-.89.64-1.39.02-.15,0-.27-.1-.37-.1-.1-.21-.17-.35-.19-.17-.02-.29.02-.39.12-.1.1-.17.21-.19.35-.02.27-.17.5-.39.79-.19.17-.35.35-.54.56-.02,0-.04,0-.06.02-.17.04-.29.1-.39.25-.48.66-.83,1.18-1.08,1.57l-.25-.14c-.12-.08-.27-.12-.39-.12,1.24-2.01,2.65-3.92,4.27-5.74.17-.19.25-.39.27-.62.54-.64,1.16-1.26,1.76-1.86Zm-7.37,9.67c.08.19.23.35.41.48l.48.29h-.02c-.17.04-.25.12-.31.27-.1.25-.19.42-.23.52-.04.06-.08.1-.1.15-.08.12-.1.25-.06.39,0,.04.02.08.04.12-.19-.04-.35.02-.52.21-.1.06-.21.29-.29.68-.1.46-.27.93-.52,1.49-.06.12-.08.25-.02.42.04.1.12.21.27.27.12.06.25.06.39.04.12-.08.23-.17.29-.29.27-.6.48-1.14.58-1.64.12-.06.23-.14.29-.27.08-.15.08-.27.02-.39-.04-.1-.08-.17-.1-.23.08.02.17,0,.27-.04.08-.02.17-.08.27-.19.02-.04.04-.1.1-.21.04-.12.15-.33.27-.62.06-.1.08-.21.06-.31l1.74,1.02c.1.21.25.37.46.52l.06.02c-.1.25-.21.5-.31.73-.02.02-.02.06-.04.08l-2.44,6.59s0,.02-.04.04c-.31.93-.6,1.93-.87,2.88l-.31-.06c-.06-.02-.15-.02-.21,0v-1.08c.02-.31.29-.85.77-1.59.02-.02.02-.04.04-.06.52-.6.85-1.37.99-2.26.17-.85.27-1.61.31-2.34.08-.56.19-.95.37-1.18.25-.31.64-.83,1.12-1.55.08-.12.1-.25.08-.39-.04-.14-.12-.25-.23-.33-.12-.08-.25-.1-.39-.06-.15.02-.25.1-.35.23-.41.66-.75,1.14-1.01,1.41l-.02.04c-.31.31-.52.89-.6,1.76-.06.68-.15,1.43-.29,2.24-.12.6-.33,1.12-.64,1.58h-.04c-.19.04-.31.12-.39.27-.66,1.06-.97,1.82-.95,2.26v1.04l-.5-.08c.12-.35.21-.62.21-.85,0-.33,0-.99.06-1.93,0-.14-.06-.27-.14-.37-.1-.1-.23-.17-.35-.17-.17,0-.29.04-.39.15-.1.1-.14.21-.14.35-.06.97-.06,1.64-.06,1.97-.02.19-.1.39-.25.66l-1.1-.17c.39-2.26.99-4.43,1.76-6.53.1-.23.1-.43.06-.66.66-1.8,1.51-3.56,2.49-5.28Zm-1.35,15.1c-.06,0-.1.02-.17.06-.12.04-.21.15-.25.31-.08.21-.14.37-.14.46-.02.1,0,.17.04.23.04.17.12.27.25.31.1.1.27.1.46.04.08,0,.19-.08.29-.27.08-.12.1-.25.08-.39,0-.02,0-.06.02-.06.04-.17.02-.29-.04-.41.06.02.15.02.23.04l.25.06c-.04.66-.08,1.35-.12,2.03v6.59c.04.7.08,1.39.12,2.07l-.46.08c-.08-.42-.12-.83-.14-1.22,0-.85-.08-1.64-.27-2.36-.14-.58-.21-1.12-.12-1.59.04-.5.17-.91.33-1.24.06-.19.08-.35.02-.5-.04-.1-.1-.19-.17-.23.06-.46.12-1.04.23-1.74.02-.14-.02-.27-.1-.37-.1-.1-.21-.21-.37-.23-.12-.02-.25.02-.35.13-.1.1-.19.21-.21.35-.17,1.08-.23,1.86-.29,2.32h-.02v.08c-.17.39-.27.81-.31,1.26v.02c-.08.6-.02,1.28.15,2.03.17.64.25,1.33.25,2.07v.02c.02.46.04.93.14,1.41l-.56.1c-.04-.52-.06-.99-.06-1.45-.02-.83-.1-1.45-.21-1.97-.1-.48-.19-1.12-.23-1.95,0-.58,0-.95.02-1.16,0-.21,0-.77-.08-1.57-.02-.14-.06-.25-.17-.35-.12-.1-.25-.14-.39-.12-.14.02-.25.08-.35.19-.1.1-.15.23-.12.37.06.72.08,1.2.06,1.43-.02.17-.02.42-.02.81-.02.02-.04.04-.06.06-.1.12-.17.27-.14.46.06.89.17,1.6.27,2.07.08.46.14,1.04.17,1.78.02.56.04,1.16.08,1.82h-.04l-.77.12c-.27-2.03-.41-4.12-.41-6.26s.14-4.29.41-6.32l3.29.58Zm1.88,15.04s0,.02.02.04l3.13,8.29c.06.12.1.27.17.41l-.17.1c-.17-.39-.33-.77-.52-1.14-.37-.79-.75-1.41-1.16-1.84-.21-.29-.39-.62-.5-1.06-.04-.62-.23-1.35-.54-2.17-.35-.91-.58-1.49-.7-1.76v.02c-.1-.27-.27-.97-.52-2.09-.02-.1-.06-.17-.12-.23l.5-.08c.12.52.27,1.02.41,1.51Zm-1.78-1.28c-.06.1-.06.21-.04.31.29,1.22.48,1.97.6,2.26v.02c.12.29.35.83.66,1.68.15.37.25.73.33,1.06l-.02.04c-.1.14-.15.31-.1.46.15.93.46,1.66.89,2.13.31.37.64.89.95,1.57.1.23.21.44.31.66v.04c-.02.14,0,.27.08.37.02.06.08.1.1.17l-.83.52c-.21-.41-.39-.83-.56-1.26-.46-.97-.85-1.55-1.2-1.78-.15-.17-.27-.66-.41-1.53-.02-.17-.1-.29-.25-.39l-.02-.02c-.15-.5-.35-.99-.58-1.49-.29-.54-.41-.85-.44-.93.02-.15,0-.56-.1-1.28-.04-.12-.1-.23-.21-.33s-.25-.15-.37-.1c-.14,0-.25.1-.35.21-.08.1-.15.21-.1.35.04.58.1.93.1,1.04-.06.17.12.66.54,1.51.23.48.41.97.54,1.45v.21c.21,1.35.52,2.11.91,2.32t.02.02c.21.17.46.6.77,1.28h0c.21.48.41.93.64,1.37l-.37.21c-.1.06-.21.14-.29.23-2.07-3.77-3.5-7.77-4.27-12.03l.77-.12c.06.02.12.04.19.06-.04.06-.06.14-.06.25,0,.14.06.27.17.37.04.06.04.14.02.25-.04.15-.02.27.04.42.06.1.19.21.33.23.12.04.27.02.39-.02.12-.08.21-.19.23-.31.17-.52.1-.91-.19-1.22l1.18-.21Zm6.36,12.2c.52.72,1.01,1.45,1.51,2.13.02.04.06.06.08.1l4.1,4.74.02.02c.43.48.89.95,1.33,1.43l-.21.27c-.29-.29-.58-.64-.87-1.08-.64-.97-1.18-1.57-1.53-1.76h.02c-.31-.17-.62-.35-.91-.48-.12-.08-.23-.1-.35-.1-.1-.1-.21-.31-.31-.52-.06-.17-.15-.25-.29-.29-.15-.06-.27-.06-.39,0-.15.08-.23.14-.27.29-.06.15-.06.27,0,.42.25.54.52.93.83,1.14.04.04.1.12.19.17.27.14.56.29.85.48.04.06.14.12.23.19h.02c.21.23.52.6.89,1.16.35.54.72.97,1.1,1.33l-.37.44c-.29-.29-.68-.58-1.1-.85-.77-.48-1.49-1.1-2.09-1.88-.72-.93-1.22-1.49-1.41-1.59h-.02c-.08-.04-.21-.25-.41-.54-.02-.02-.04-.02-.04-.06t-.04-.02c-.31-.52-.56-.93-.85-1.26-.31-.39-.62-.7-.91-.89-.12-.08-.25-.1-.39-.06-.14.02-.25.08-.33.21-.08.12-.1.25-.06.39.02.14.08.25.21.33.21.15.43.35.68.66.14.17.29.37.44.6-.02.02-.02.04-.02.08-.04.17,0,.31.1.46.48.68.81,1.08.99,1.18.12.1.52.54,1.1,1.28.64.85,1.39,1.53,2.24,2.05.12.12.31.25.48.35t.04.02v.02c.23.17.43.33.6.52l-.5.6c-.62-.56-1.2-1.12-1.8-1.7l.02.02c-1.35-1.37-2.59-2.75-3.75-4.18-.14-.21-.35-.37-.58-.42-.77-1.04-1.49-2.09-2.17-3.17.1-.04.21-.08.31-.15l.85-.48c-.1.08-.17.19-.21.33-.02.31,0,.56.14.72.12.23.35.35.68.37.14,0,.27-.04.37-.12.1-.1.14-.21.17-.37,0-.14-.04-.25-.12-.35-.06-.08-.12-.15-.19-.17.02-.13-.02-.23-.1-.33-.1-.1-.21-.19-.35-.21-.08-.02-.15,0-.21.02l1.37-.81v.04c-.02.13.02.25.12.37.79.89,1.26,1.49,1.41,1.76v-.02c.17.31.44.79.89,1.47.06.1.19.19.33.25.14,0,.27,0,.39-.1.1-.08.19-.19.23-.31.02-.15,0-.29-.08-.39-.39-.64-.68-1.1-.85-1.43-.19-.31-.7-.95-1.53-1.91-.04-.06-.1-.12-.19-.14l.08-.04-.04.02.46-.25Zm54.12,12.53h-.02c-.31.35-.77.58-1.39.73-.14,0-.27.06-.33.21-.08.1-.1.23-.08.37.02.14.08.27.21.35.1.06.25.1.39.08.87-.17,1.53-.54,1.99-1.06.33-.37.64-.64.93-.79.33-.21.79-.56,1.37-1.08.1-.1.14-.23.14-.37v-.02l.93,1.08c-.06,0-.1.02-.17.04-.68.25-.97.52-.81.87,0,.06.02.1.04.14-.1-.04-.21-.1-.31-.1-.12,0-.27.06-.37.17-.29.25-.54.45-.75.62h-.02c-.19.13-.66.39-1.41.77-.04.02-.06.02-.08.04-.81.31-1.33.62-1.57.95-.1.08-.21.17-.31.25t-.02.02c-.15.12-.29.25-.44.35-.02.02-.06.02-.08.04v.02c-.48.25-1.22.46-2.24.68-.75.19-1.35.39-1.82.66l-.31-.79c.31-.29.56-.41.73-.41h.02c.48.21,1.16,0,1.99-.52.08-.02.17-.06.27-.1h-.02c.52-.23.99-.56,1.41-.95.1-.1.14-.23.14-.37s-.04-.25-.14-.35c-.1-.12-.23-.19-.37-.19s-.25.06-.35.19c-.23.21-.46.39-.7.54-.06-.04-.1-.06-.17-.06-.19-.04-.33,0-.48.1-.39.25-.7.41-.97.5-.1,0-.19,0-.29.02-.39-.17-.89-.04-1.51.37l-.02-.08c.75-.39,1.49-.77,2.24-1.12.02-.02.04-.02.06-.04l5.94-3.56h.02c.39-.23.77-.46,1.16-.75l.37.48s-.04-.02-.06-.02c-.17,0-.29.04-.39.14-.48.44-.87.75-1.16.91-.35.19-.77.54-1.18,1.04Zm-1.6,4.79h-.02c.66-.31,1.08-.64,1.3-1,.15-.17.5-.39,1.02-.58.14-.06.27-.19.35-.33,0-.02,0-.06.02-.08.68-.33,1.12-.58,1.31-.72l-.02.02c.23-.17.54-.39.89-.72.1-.1.17-.23.17-.37,0-.06-.02-.17-.04-.23.1.08.23.12.35.1.17-.02.27-.08.37-.19.04-.06.04-.13.08-.17.02,0,.06.02.12,0,.14-.06.25-.15.31-.27.02-.04.02-.08.04-.14l.54.64c-3.34,2.69-6.9,4.81-10.71,6.3l-.27-.79c.35-.23.81-.44,1.33-.58.1-.02.23-.04.33-.06l.54-.14c.87-.23,1.53-.46,1.99-.68Zm-14.5.42s.06-.02.08-.02l5.59-1.1s.06-.02.1-.02c.31-.1.64-.19.95-.27l1.02,2.73s-.08-.06-.1-.08c-.12-.08-.25-.1-.39-.06-.1.02-.19.06-.25.14-.06-.02-.14-.02-.21,0-.14.02-.27.08-.33.21-.08.1-.1.25-.08.39.02.14.08.25.21.33.46.35.85.25,1.22-.29.04-.08.04-.17.06-.23l.37.93c-1.33.41-2.63.77-4,1.06l.04-.02c-2.03.39-4.08.68-6.13.89l.02-.02c-.73.06-1.45.1-2.22.12v-.46c.39,0,.81-.02,1.18-.06.68-.06,1.47-.12,2.32-.21.91-.1,1.64-.21,2.2-.31.56-.12,1.22-.25,1.97-.37.17-.06.27-.11.37-.21.31-.08.54-.1.77-.14.5-.06.87-.17,1.14-.31.1-.06.19-.17.23-.31.04-.15.02-.27-.04-.39-.06-.13-.17-.21-.31-.25-.15-.04-.27-.02-.39.04-.21.1-.44.17-.73.19h-.02c-.23.02-.54.08-.93.17-.1-.04-.21-.04-.33-.02-.75.15-1.39.27-1.95.41h-.02c-.54.1-1.22.17-2.07.25-.85.08-1.62.17-2.3.21h-.04c-.33.02-.66.06-1.04.06v-1.16c.41-.06.87-.08,1.33-.06.83.02,1.41.1,1.76.23.5.19,1.04.1,1.57-.27.29-.08.6-.19.93-.31l-.02.02c.75-.31,1.22-.48,1.41-.54.06,0,.12.02.19.08.12.06.25.08.39.04.17-.02.27-.1.35-.23.04-.13.06-.25.04-.39-.02-.15-.1-.25-.23-.31-.35-.21-.66-.29-.93-.21h-.04c-.17.02-.68.21-1.57.58-.06.02-.15.06-.23.1-.1-.1-.21-.15-.35-.17-.17-.02-.31.04-.48.17-.21.19-.41.27-.62.25-.44-.17-1.14-.27-2.15-.29-.46-.02-.89,0-1.35.04v-.02c1.39-.14,2.73-.33,4.04-.54Zm-16.34-1.14l.08.02c.12.06.25.06.39.08t.04.02c.37.06,1.72.31,4.06.79.04.02.1.02.14.02.1,0,.21.02.31.08h.12s.08,0,.1.02l.39.08c.12.02.29.04.41.04h.08l3.65.52v.04c-.52-.06-1.04-.08-1.49-.06-.81.02-1.43.12-1.93.29-.21.04-.46-.04-.72-.27-.12-.1-.29-.17-.44-.14-.08,0-.12.02-.19.04-.56-.35-1.14-.54-1.7-.56-.83-.08-1.31.02-1.41.35-.1.12-.1.25-.08.39.04.15.08.25.21.33.14.08.27.1.39.08.17-.02.27-.1.35-.23.04.06.19.08.46.1.46.04.91.21,1.37.48.1.06.21.13.33.19.6.48,1.22.62,1.82.41.39-.12.91-.21,1.57-.23.44-.02.93.02,1.45.08v.97c-.5-.02-1.01-.04-1.57-.02-.89.02-1.68-.02-2.36-.12-.73-.17-1.28-.27-1.74-.31-.41-.06-.99-.17-1.78-.31-.19-.04-.31-.02-.46.1-.1.04-.17.14-.21.25-.17-.02-.29-.04-.37-.1-.25-.29-.62-.5-1.06-.62-.14-.04-.27-.02-.39.04-.12.06-.21.19-.25.33-.04.12-.02.25.04.37.06.14.19.21.33.25.23.06.44.21.58.33l.02.02c.29.31.91.48,1.88.44.25-.02.48-.02.7,0,.31.06.58.1.79.14.39.04.97.12,1.66.27h.02c.75.17,1.62.21,2.63.19.56-.02,1.08,0,1.53.02v.64c-2.17-.06-4.29-.27-6.36-.62h.02c-1.33-.27-2.17-.44-2.57-.5-1.12-.29-2.2-.58-3.25-.93l.25-.77s.08.08.1.13c.39.43.75.54,1.16.23.1-.06.19-.17.23-.31.02-.15,0-.29-.08-.39-.06-.12-.17-.21-.31-.23-.08-.02-.17-.02-.25,0-.06-.1-.17-.14-.33-.17-.1-.02-.19,0-.25.06l.93-2.59c.29.04.58.12.89.23l-.1-.02s.08,0,.12.02Zm-5.53-2.26s-.08-.02-.1-.04l-5.97-3.56h.02c-.37-.23-.75-.46-1.12-.72l.1-.15c.35.25.73.5,1.08.7v-.02l5.99,3.56s.06.02.08.04c.75.37,1.49.77,2.26,1.16l-.08.19c-.77-.39-1.51-.79-2.26-1.16Zm-.66.27c-.08-.06-.17-.08-.27-.08-.29-.14-.68-.33-1.16-.58-.14-.06-.27-.06-.39-.02-.14.06-.23.14-.29.29-.06.12-.08.25-.02.39.04.12.12.23.27.29.39.19.72.33.97.48.06.14.17.25.31.33.79.41,1.35.66,1.72.7h-.04c.25.06.66.27,1.31.58l-.25.62c-.56-.39-1.1-.66-1.59-.81v-.02c-.62-.19-1.41-.52-2.36-.99-.89-.44-1.51-.66-1.91-.66-.08-.06-.19-.1-.27-.17-.04-.11-.12-.19-.27-.29-.1-.08-.25-.12-.37-.12-.64-.41-1.16-.75-1.57-.93l-.02-.02c-.17-.06-.27-.06-.31,0,.02-.12-.04-.27-.1-.39-.08-.1-.19-.15-.35-.19-.12-.02-.25,0-.37.08.02-.04.04-.12.04-.21.08-.29-.19-.56-.77-.81-.06-.02-.1-.02-.17-.04l.89-1.04c.02.06.04.14.06.23.08.1.19.19.31.23.5.15.81.25.91.35.14.19.54.56,1.14,1.08.62.5,1.24.93,1.86,1.33.1.06.23.08.39.04.12-.04.23-.12.31-.25.06-.12.08-.23.04-.39-.04-.14-.12-.25-.23-.31-.6-.33-1.14-.73-1.7-1.2-.54-.43-.87-.75-.99-.91-.17-.27-.64-.5-1.45-.73-.08-.02-.12-.02-.21-.02l.37-.39c.35.23.73.45,1.08.68h.02l5.99,3.56s.06.02.08.04c.77.37,1.51.77,2.28,1.16l-.1.29c-.68-.35-1.16-.56-1.43-.6t-.04,0c-.27-.06-.73-.27-1.35-.58Zm-2.78,2.07c.1.06.25.15.41.23.97.5,1.8.85,2.46,1.08.15.04.25.08.35.1.41.17.83.41,1.26.77l-.25.7c-3.83-1.51-7.41-3.6-10.73-6.28l.46-.54s.02,0,.02.02c.06.12.15.21.29.29.1.02.14,0,.14-.1,0,.1.06.21.17.31.1.1.21.14.35.14.1,0,.21-.04.31-.1,0,.06-.02.08-.02.12-.17.42.12.81.91,1.14.37.17.85.44,1.41.83.04.1.12.21.23.29.58.41,1.06.62,1.37.64.1.06.17.1.25.15.17.02.33.1.6.21Z"/><path class="cls-1" d="m67.4,9.22c-.06-.17-.15-.25-.27-.31-.77-.39-1.3-.66-1.61-.83-.02-.02-.02-.06-.06-.08-.04-.15-.12-.23-.29-.27-.14-.06-.27-.06-.39,0-.23.1-.35.25-.35.43-.06.14-.02.33.15.5.06.1.21.21.43.35h.02c.33.15.89.43,1.66.83.12.06.23.06.39.02.14-.06.25-.12.31-.27.06-.12.06-.25.02-.37Z"/><path class="cls-1" d="m62.22,6.42c-.15.08-.23.17-.27.31-.06.13-.04.25.02.39.06.12.15.21.29.27.48.17.81.29,1.04.39.02.02.04.06.08.1.1.1.21.15.35.15s.25-.02.31-.06c.19-.1.29-.25.29-.41.02-.1,0-.25-.1-.39-.04-.06-.17-.17-.39-.27-.23-.1-.62-.27-1.22-.47-.15-.08-.27-.06-.39,0Z"/><path class="cls-1" d="m61.6,6.61c.21-.19.25-.39.12-.6-.02-.1-.1-.21-.29-.31-.12-.06-.37-.1-.77-.1-.15,0-.27.02-.37.12-.1.1-.17.21-.17.35s.04.27.15.39c.1.1.21.17.35.17h.04c.04.06.1.1.17.13.12.06.25.08.39.04.21-.06.31-.12.37-.19Z"/><path class="cls-1" d="m77.36,18.17s-.02-.02-.04-.04c-.23-.29-.58-.77-.99-1.41-.06-.13-.17-.21-.31-.23-.15-.02-.29-.02-.39.08-.12.04-.21.17-.23.31-.04.14-.02.27.06.42.46.7.81,1.2,1.06,1.49.21.21.33.33.44.39.21.1.35.12.48.06.19-.02.33-.15.43-.37.02-.14.02-.27-.02-.39-.06-.15-.17-.23-.29-.27-.08-.02-.12-.04-.19-.04Z"/><path class="cls-1" d="m75.38,16.36c.1-.1.14-.21.12-.37-.02-.15-.06-.25-.17-.35-.66-.54-1.01-.89-1.14-1.06-.15-.23-.5-.6-1.04-1.08-.1-.1-.25-.15-.39-.15-.15.02-.27.1-.35.21-.1.1-.14.21-.14.35.02.17.08.27.19.37.46.39.77.68.87.87v.02c.17.21.6.62,1.33,1.24.1.1.23.15.37.15.15-.04.25-.1.35-.21Z"/><path class="cls-1" d="m66.86,19.02c0-.06,0-.1-.02-.15-.06-.33-.25-.58-.52-.77t-.06-.04s-.08-.04-.08-.06c-.41-.29-.79-.54-1.16-.77-.02-.02-.04-.02-.04-.02l-3.46-2.05c-.31-.19-.62-.23-.95-.15-.02,0-.06,0-.08.02h-.02l-1.2-.7s-.02-.02-.06-.02c-.37-.21-.77-.44-1.16-.64-.02,0-.02-.06-.02-.08-.1-.31-.31-.54-.64-.68-.02-.02-.04-.02-.06-.04-.1-.12-.25-.23-.41-.31-.25-.12-.5-.19-.77-.12l-.5-.1c-.19-.08-.37-.1-.54-.17-.06-.02-.1-.02-.17-.02l-1.59-.27c-.27-.06-.5-.02-.73.08l-7.06-1.18-.23-.08c-.14-.04-.31-.04-.46-.02l-4.89.83c-.25-.1-.48-.12-.7-.08l-4.02.68s-.1,0-.15.02c-.08.02-.17.02-.25.04-.37.1-.75.19-1.14.29-.06.02-.1.04-.17.08-.15,0-.29.04-.41.1h-.02c-.06.02-.12.06-.19.1-.04,0-.08.02-.12.04-.06.02-.15.06-.23.12l-.06.04s-.06.02-.06.04c-.14.1-.25.21-.31.37-.52.23-1.04.48-1.51.77t-.04.02l-3.13,1.84c-.27-.02-.52.06-.75.21l-1.12.68s-.04,0-.06.02l-.54.29s-.04.04-.08.06c-.48.31-.99.66-1.55,1.01l-.02.02c-.1.06-.25.15-.35.23-.1.06-.19.14-.25.25-.02.02-.06.08-.12.15-.19.19-.31.39-.35.62-.56.58-1.1,1.18-1.62,1.8h-.02l-1.39,1.64c-.19.06-.35.17-.5.33l-.41.52c-.06.02-.12.06-.17.12-.1.1-.19.21-.25.35l-.6.68-.02.02c-.58.75-1.12,1.49-1.64,2.28t-.02.04s-.06,0-.06.02c-.17.1-.29.23-.37.41-.06.12-.1.25-.12.41-.02,0-.02.02-.02.04-.15.39-.31.79-.5,1.14-.02.06-.02.1-.04.12l-2.15,5.8s0,.04-.02.04c-.31.93-.6,1.88-.85,2.86-.02.04-.04.08-.06.12-.02.06-.02.12-.04.19l.08-.21c-.02.06-.02.15-.04.21l.08-.21.08.04c-.06.04-.12.1-.17.17t-.02.02c-.06.08-.1.19-.12.29v.02c-.06.15-.1.27-.1.43-.02.87-.08,1.76-.14,2.61v5.88c.06.85.12,1.7.14,2.59,0,.1.02.23.06.33.02.08.04.15.06.23.02.02.04.06.06.1t.02.06s.02,0,.04.02c0,.02,0,.08.02.08v.06l-.08-.23c.02.06.02.1.04.17.02.04.04.1.06.12.1.62.27,1.24.48,1.82v.04l2.78,7.29c.1.29.23.6.37.91.02.04.04.08.06.14.02.04.06.08.08.12.02.06.04.1.06.15.02.06.04.12.1.19.02.08.06.12.12.19v.02s.04.08.1.1t.04.04c.52.81,1.06,1.62,1.64,2.36.02.02.02.06.04.08l3.62,4.18.04.02c.52.56,1.04,1.1,1.55,1.64l.02.04c.1.1.19.17.25.23l.02.02s.02.02.04.06c.06.04.15.1.25.17.06.04.08.08.17.15.54.37,1.06.71,1.57,1.02l5.28,3.15s.04.02.06.04c.87.41,1.7.85,2.57,1.29.06.02.1.06.17.08.04.02.08.02.12.04.14.08.29.14.46.17.06.02.12.04.19.06.48.1.95.23,1.41.37h.08l.19.04s.14.02.21.06h.02c.31.04.6.1.91.17h.02l2.59.5h.02c.19.06.33.08.52.12l-.12-.04.12.02s.08.02.12.06l.48.06h-.06c.21.04.37.06.56.08h.14l3.52.48h.25s.06.02.12.02h.17c.08,0,.17,0,.25-.02h.23s.04-.04.06-.04c1.41-.15,2.78-.33,4.12-.52.02-.02.04-.02.06-.02l4.97-.95s.08-.02.12-.02c.43-.17.91-.27,1.37-.37.06-.02.1-.04.17-.06h.06c.1-.02.23-.06.33-.08.04-.02.08-.06.12-.08.02-.02.06-.02.1-.04.04-.02.08-.06.14-.08.89-.44,1.74-.85,2.59-1.29.02-.02.04-.02.06-.04l5.26-3.15h.02c.54-.31,1.06-.64,1.57-1.02.06-.06.1-.1.17-.15,0-.02.04-.04.06-.06.08-.06.15-.1.25-.19.06-.06.15-.12.25-.23t.02-.04c.27-.31.56-.58.83-.87.06-.06.12-.12.19-.19l.06-.08.02-.02v-.02s0-.02.02-.02c.15-.14.27-.29.41-.43t.04-.04l.43-.48s.08-.08.1-.1v-.04c.5-.6.99-1.18,1.49-1.76l-.04.06.6-.68s.06-.08.1-.13l.02-.02.89-1.01s.04-.06.06-.08c.58-.77,1.12-1.57,1.7-2.38.1-.1.19-.23.25-.35.1-.12.17-.25.21-.35t.02-.04c.04-.06.08-.12.1-.19.12-.31.25-.62.35-.91v-.02l2.78-7.29s.02-.04.02-.06c.19-.6.35-1.24.5-1.89.08-.19.12-.37.12-.54.02-.08.06-.17.08-.25,0-.04,0-.08.02-.1v-.23c.04-.81.1-1.59.17-2.32v-5.88c-.06-.85-.12-1.74-.14-2.61,0-.17-.04-.31-.1-.46-.02-.15-.08-.29-.19-.48-.23-1.02-.52-2.03-.85-3l-.02-.04-2.09-5.57-.02-.1v-.02s-.02,0-.02-.02c-.02-.06-.06-.13-.1-.21-.15-.35-.31-.73-.46-1.08,0-.1-.02-.21-.06-.31-.1-.31-.27-.54-.52-.68-.54-.79-1.1-1.53-1.68-2.28v-.02l-.77-.93-.02-.02s-.06-.06-.08-.08l-.48-.5c-.23-.23-.5-.35-.81-.37l-1.35-1.59v-.02c-.7-.75-1.39-1.51-2.09-2.24-.02-.02-.04-.02-.08-.04-.04-.06-.1-.1-.1-.12t-.04-.04Zm2.36,5.12s-.04.1-.04.12c0,.33.08.62.31.87l.19.25v3c0,.35.12.64.37.89t.04.04v14.21c-.15.19-.21.39-.21.62v2.82c-.15.19-.21.41-.21.68v1.74c0,.06,0,.12.02.19-.04.02-.1.02-.1.04-.37.23-.79.41-1.18.58-.21.06-.37.19-.48.35-.62.21-1.28.31-1.97.37-.27.04-.56.04-.87.04h-.27c-.79-.04-1.53-.1-2.24-.31-.12-.17-.29-.29-.5-.35-.12-.04-.25-.08-.35-.12.02-.1.02-.19.02-.29v-15.12c0-.25-.06-.48-.19-.66v-7.79c0-.23-.06-.43-.23-.62v-6.83s.06-.02.08-.04c.17-.19.27-.37.33-.58l.93.56v.02l.97.58-.04-.04c.41.27.85.56,1.33.85.29.15.58.21.89.15t.02.06c.68.68,1.35,1.43,2.01,2.17v-.02l1.35,1.58Zm2.94,4.45s.06.1.1.17c.06.06.12.15.19.21.02.08.08.17.14.27.14.42.31.81.52,1.2,0,.02,0,.06.04.08l2.09,5.63-.02-.04c.31.99.6,1.97.87,2.98.02.08.06.17.1.27,0,.12.02.25.06.35.04.79.08,1.55.12,2.32v5.51c-.02.15-.02.31-.02.52-.15-.04-.27-.06-.41-.06-.27-.02-.52-.02-.79-.02-.91,0-1.78.1-2.61.29-.15.02-.29.1-.39.14v-.77c0-.27-.06-.5-.21-.68v-2.82c0-.23-.06-.43-.21-.62v-14.21s.04,0,.06-.04c.19-.21.31-.44.35-.68Zm-1.53,22.81h0c.56-.31,1.14-.54,1.76-.75.23.1.48.12.73.06.66-.15,1.33-.23,2.05-.23.23,0,.43,0,.66.02h.02c.06,0,.14,0,.25.04h-.02c-.08.44-.19.87-.31,1.26h-.21c-.15-.02-.27-.02-.39-.02-.39,0-.77.02-1.12.04-.27.02-.52.13-.72.29-1.37.19-2.61.64-3.73,1.31t-.04.02c-.17.08-.27.17-.39.23-.21.1-.33.23-.44.41-.85.35-1.76.6-2.75.66h-.02c-.29.04-.54.04-.85.04h-.27c-.37,0-.75-.04-1.1-.08-.21-.02-.39,0-.58.12-.72-.15-1.41-.35-2.07-.66-.17-.06-.33-.08-.48-.02-.17.06-.29.17-.35.33-.06.14-.08.31-.02.48.06.15.17.27.33.35.75.33,1.57.58,2.42.75.12.17.29.27.52.31.41.06.85.08,1.3.1h.29c.35,0,.7-.02,1.02-.04,1.18-.1,2.28-.39,3.31-.81.25.04.48,0,.72-.1.17-.1.35-.21.52-.31.87-.52,1.84-.83,2.92-.99.19.1.41.17.66.13.19-.02.39-.02.6-.02l-.5,1.33h-.04c-.48.02-.89.08-1.33.19-.29.02-.5.12-.66.33-.99.23-1.91.6-2.73,1.12-.1.04-.21.1-.27.17-.21.17-.35.37-.41.62-.89.39-1.86.62-2.94.7h0c-.27.02-.56.06-.87.06h-.21c-.17,0-.31.04-.43.17-.12.14-.19.27-.19.46,0,.15.06.31.19.42.12.15.27.21.43.21h.21c.35,0,.66-.02.97-.04,1.22-.1,2.36-.37,3.4-.83.1.04.21.08.33.1.27.04.52-.04.77-.21h.02s.04-.02.04-.04c.66-.39,1.35-.64,2.09-.85.19.1.39.1.64.1l-.48,1.24s-.06.06-.08.12c-.04,0-.08,0-.1.02-.12.02-.25.06-.35.06-.27.06-.54.12-.81.23-.25.08-.46.23-.6.43-.48.19-.93.39-1.35.66-.35.19-.75.37-1.12.54-.19.08-.33.21-.44.37-.64.21-1.35.35-2.07.39-.27.02-.56.02-.87.02h-.27c-.48-.02-.93-.04-1.37-.1-.21-.04-.39,0-.54.1-.93-.17-1.8-.52-2.57-.97h.02c-.66-.39-1.39-.68-2.11-.89-.14-.04-.31-.02-.43.06-.15.08-.25.21-.33.37-.04.17-.02.33.08.48.06.15.21.23.35.29.62.19,1.24.44,1.8.77.89.52,1.89.89,2.96,1.12.14.19.31.29.54.33.52.06,1.04.1,1.57.12h.29c.35,0,.66,0,.97-.02h.04c.87-.06,1.7-.23,2.46-.48.23.04.5.04.75-.06.46-.19.89-.42,1.3-.64v-.02c.1-.06.21-.1.31-.17-.1.17-.21.27-.31.41t-.04.06l-.81.97-.02.02v.02l-.62.68s-.02.02-.06.04c-.14.17-.29.33-.41.5-.23-.06-.46-.06-.68.02-.64.19-1.31.33-2.03.37-.19.02-.39.02-.56.06-.25,0-.46.06-.62.21-.33-.04-.64-.06-.93-.08-.23-.02-.41,0-.6.1-1.01-.19-1.95-.54-2.75-1.02h-.02c-.41-.25-.85-.46-1.31-.64-.21-.08-.41-.08-.62,0-.81-.27-1.64-.42-2.53-.48-.15-.14-.31-.23-.5-.25-.17-.02-.35-.02-.48-.02-1.43,0-2.71.23-3.92.66-.23-.06-.44-.06-.64.04-.35.15-.7.31-1.04.5l-.02.02c-1.26.75-2.71,1.12-4.41,1.16h-.08c-.64,0-1.26-.08-1.8-.19-.23-.02-.44-.02-.62.08-.62-.17-1.18-.4-1.7-.66-.19-.1-.37-.13-.58-.08-.41-.25-.85-.46-1.35-.62-.14-.06-.31-.04-.48.02-.17.06-.27.19-.33.35-.06.14-.04.31.02.48.06.15.19.25.37.31.39.15.79.33,1.16.54.08.21.19.39.39.5.66.31,1.35.58,2.09.77.15.21.37.33.6.37.7.14,1.45.21,2.22.21h.1c2.09-.02,3.92-.5,5.47-1.45h-.02c.27-.15.52-.27.79-.37.21-.1.35-.25.48-.43.99-.35,2.11-.52,3.29-.52.1,0,.21,0,.31.02.21.02.44-.04.62-.19.77.06,1.47.19,2.15.42.1.17.23.29.41.35.35.14.75.33,1.1.54.99.6,2.13,1.01,3.36,1.24.17.17.37.27.62.31.37.04.77.06,1.16.08.23.17.52.23.79.21.19-.02.35-.02.52-.04-.21.19-.35.35-.52.54-.1.06-.14.12-.21.19-.1.06-.21.15-.29.23-.33.23-.64.44-.95.64-.06-.04-.14-.06-.23-.08-.1-.02-.23-.06-.33-.06-.35-.04-.68-.1-.99-.21-.23-.06-.43-.06-.64.04-.27-.1-.54-.21-.77-.31-.19-.08-.37-.1-.56-.06-.08-.04-.17-.08-.23-.12l.02.02c-.27-.19-.56-.33-.83-.44-.17-.08-.31-.08-.48-.02-.14.06-.29.19-.33.33-.08.15-.08.31-.02.48.04.15.17.27.33.35.23.1.46.21.68.35.1.06.19.1.29.17.08.21.23.35.44.46.31.15.62.27.97.37.06.08.12.14.19.21l-1.55.93c-.15-.06-.27-.12-.39-.19t-.04-.02c-.46-.21-.87-.37-1.33-.52-.27-.06-.48-.06-.7.04-.83-.19-1.68-.27-2.57-.27h-.23c-.23,0-.41.08-.6.23-.12.02-.31.02-.44.04-.19.02-.33.08-.43.23-.1.14-.17.29-.15.46.02.17.08.31.23.44.15.1.29.14.48.12.1-.02.23-.02.39-.02.12.1.31.17.52.17h.23c.77,0,1.47.08,2.15.23.12.15.29.29.52.33.02.02.04.02.08.06-.62.27-1.2.56-1.8.87-.04.02-.08.02-.1.06t-.04.02s-.06,0-.08.02c-.06.02-.1.02-.19.06h-.02c-.1.02-.19.04-.25.06-.39.08-.79.19-1.2.31l-4.85.95c-1.28.19-2.61.37-4,.52-.08,0-.15,0-.21.02-.02,0-.04,0-.04.02t-.04,0s-.08-.02-.12-.02h-.08s-.02-.02-.04-.02l-3.46-.44h-.08c-.12-.02-.25-.04-.35-.06l-.12-.02h.04l-.41-.06s-.08-.02-.1-.02c-.19-.04-.33-.08-.52-.1,0-.02-.02-.02-.04-.02l-2.63-.5.04.02c-.35-.1-.68-.17-.99-.23l.08.02-.17-.02h-.1l-.06-.04.04.04-.02-.04.04.04c-.25-.1-.52-.19-.77-.25l-.75-.17h-.08c-.06-.04-.12-.06-.19-.08-.06-.02-.1-.06-.17-.08-.56-.29-1.12-.56-1.7-.87.02,0,.08-.06.1-.08.23-.08.52-.12.79-.19.21-.04.39-.12.54-.27.19-.02.37-.04.56-.06.19-.02.37-.08.52-.23h.48c.15,0,.31-.06.43-.19.1-.12.19-.27.19-.44s-.08-.31-.19-.43c-.12-.12-.29-.19-.43-.19h-.5c-.21-.17-.39-.21-.6-.21-.23.02-.46.04-.68.08-.21-.12-.43-.17-.66-.12-.41.06-.77.19-1.16.29-.21-.06-.46-.06-.72.04-.39.14-.79.31-1.16.5-.02.02-.04.02-.06.04l-1.04-.6c.66-.23,1.28-.52,1.88-.85.02-.04.04-.04.06-.06.04-.04.1-.04.17-.08.27-.1.46-.27.62-.52,1.06-.46,2.24-.68,3.56-.68.95,0,1.88.13,2.73.41.23.04.43.04.64,0,.46.12.85.33,1.24.56.89.52,1.86.89,2.94,1.14.21.04.41,0,.62-.12.58.12,1.18.17,1.8.17.17,0,.31-.06.44-.19.12-.1.19-.27.19-.46,0-.17-.06-.31-.17-.44-.12-.12-.27-.19-.46-.19-.56,0-1.08-.04-1.59-.12-.1-.14-.29-.25-.46-.29-.91-.17-1.74-.5-2.46-.93-.5-.31-1.02-.56-1.55-.75-.17-.19-.31-.33-.56-.4-1.04-.33-2.15-.48-3.36-.48-1.68,0-3.19.27-4.52.89-.21-.02-.41,0-.6.08-.21.06-.39.17-.56.27-.95.54-1.97.89-3.11,1.04-.19.02-.37.1-.52.21-.25-.19-.5-.35-.75-.54-.1-.06-.19-.14-.29-.21-.04-.06-.12-.12-.21-.21-.17-.19-.33-.35-.52-.52.31.02.62.02.97.02h.54c.31,0,.56-.08.79-.27.7-.08,1.39-.23,2.03-.41.21-.08.39-.23.52-.42.58-.21,1.1-.46,1.6-.75h-.02c.44-.23.91-.43,1.41-.62.19-.06.33-.19.43-.35.41-.12.89-.21,1.37-.27.17-.02.31-.1.42-.23.1-.14.15-.29.12-.46-.02-.19-.1-.31-.23-.41-.14-.1-.29-.17-.46-.15-.56.06-1.12.17-1.64.31-.19-.08-.35-.08-.54-.02-.62.19-1.18.46-1.72.77-.39.23-.83.41-1.26.6-.21-.08-.41-.08-.62-.02-.52.14-1.04.27-1.6.33-.19-.1-.37-.13-.6-.13h-.54c-.27,0-.56-.04-.81-.06l.02.02c-.29-.04-.52-.06-.75-.06h.02c-.48-.1-.93-.21-1.37-.33-.23-.08-.46-.08-.68-.02l-1.93-2.24c-.12-.17-.25-.31-.35-.46.1.04.19.08.29.15.02.02.06.02.08.04.02,0,.02.02.04.06.25.1.5.23.77.35.23.1.46.17.68.08.91.33,1.91.56,2.98.66h.02c.21.06.41.02.62-.08.06-.04.08-.08.14-.1h.5c.31-.02.62-.02.93-.04.17-.02.31-.1.41-.23.1-.12.17-.27.17-.43-.02-.19-.08-.31-.21-.42-.13-.1-.27-.19-.44-.19-.31.02-.62.02-.93.04h-.44c-.1-.06-.25-.15-.37-.17-.1-.04-.19-.06-.29-.06-.89-.04-1.7-.25-2.46-.52-.1-.19-.25-.31-.46-.42-.21-.1-.41-.21-.62-.31-.02-.02-.04-.04-.08-.06-.25-.15-.52-.29-.77-.41-.17-.23-.35-.37-.6-.48-.56-.21-1.12-.39-1.7-.5-.06-.02-.17-.02-.21-.02-.04-.06-.06-.1-.06-.12l-.5-1.28c.19.04.39.08.6.15.27.06.52.06.75,0,.48.14.95.37,1.41.64h.02c.1.08.23.15.39.23.23.12.44.17.7.1,1.04.48,2.18.74,3.44.85.31.02.62.04.93.04.23,0,.41-.06.58-.21.6-.02,1.16-.08,1.72-.21.21.12.41.17.62.1.93-.27,1.8-.62,2.61-1.08h.02c.15-.1.31-.17.5-.27.21.06.41.04.66-.06.41-.19.85-.31,1.31-.41.23-.04.41-.15.56-.31.5-.08,1.02-.12,1.6-.12,1.1,0,2.13.17,3.07.5.19.04.39.04.58,0,.37.12.7.31,1.08.52,1.14.66,2.44,1.08,3.89,1.26.17.17.35.25.58.27.27.02.52.02.79.02h.1c1.2-.02,2.32-.17,3.33-.5.23.08.48.08.7-.02.48-.21.97-.42,1.41-.68.23-.14.5-.25.73-.35.19-.1.31-.25.41-.41,1.04-.4,2.17-.6,3.42-.6.23,0,.5.02.72.04.23.02.41-.02.58-.17,1.26.15,2.38.52,3.4,1.14l-.06-.06c.1.06.21.13.33.19.15.08.31.08.48,0,.14-.06.27-.19.33-.33.06-.17.06-.31,0-.48-.06-.17-.19-.29-.35-.35t-.04-.02s-.02-.02-.04-.04c-1.2-.68-2.49-1.12-3.96-1.28-.14-.15-.31-.25-.5-.27-.29-.02-.58-.04-.89-.04-1.49,0-2.84.27-4.06.75-.27-.06-.5-.04-.7.08-.29.12-.54.27-.81.41-.39.21-.79.39-1.18.56-.19.06-.37.19-.48.37-.85.25-1.78.37-2.8.42h-.08c-.23,0-.48,0-.7-.04-.19-.02-.37.04-.52.17-1.28-.12-2.4-.52-3.42-1.12h.02c-.41-.25-.85-.46-1.31-.62-.1-.19-.23-.33-.43-.39-1.12-.37-2.32-.58-3.62-.58-.68,0-1.33.04-1.93.17-.21-.12-.46-.17-.66-.1-.62.14-1.18.33-1.72.58-.21.08-.35.21-.46.39-.25.12-.48.25-.7.39-.66.39-1.39.68-2.2.89-.19.06-.35.17-.46.29-.48.08-.97.15-1.49.19-.17-.17-.35-.21-.56-.21-.29,0-.52-.04-.79-.06h-.02c-1.04-.04-1.99-.29-2.88-.68-.1-.17-.23-.29-.37-.39-.1-.06-.21-.12-.31-.19l-.04-.02c-.58-.35-1.24-.64-1.93-.87-.17-.19-.37-.33-.6-.37-.52-.17-1.04-.27-1.55-.31h.02c-.23-.04-.5-.06-.75-.08l-.52-1.35c.25.02.52.04.74.08.33,0,.64-.08.93-.29t.02-.02c.87.15,1.66.44,2.4.83.19.1.37.1.58.06.48.27.95.52,1.47.7.19.06.35.06.5-.04.14-.06.27-.19.33-.35.06-.17.04-.33-.04-.48-.06-.15-.19-.25-.35-.31-.46-.17-.89-.37-1.3-.6-.08-.21-.21-.35-.39-.46-.93-.48-1.91-.83-2.98-1.02-.02-.02-.02-.04-.04-.06-.23-.29-.5-.46-.83-.46-.43-.08-.87-.1-1.3-.1h-.12c-.19,0-.35,0-.52.02-.1-.41-.21-.83-.29-1.26h0c.08-.04.17-.04.27-.04h.02c.21-.02.41-.02.64-.02,1.14,0,2.17.17,3.15.52.23.06.46.08.68.06.23.1.48.21.71.33.85.52,1.82.91,2.86,1.16.23.06.46.02.68-.08.31.06.66.1,1.01.12h0c.31.02.64.02.99.02h.27c1.97-.04,3.71-.52,5.18-1.39.35-.21.7-.37,1.1-.52.21.06.41.06.64,0,.81-.27,1.68-.41,2.65-.44.21.17.44.23.68.23.93.04,1.8.19,2.61.46.31.1.64.1.95-.06.21.1.41.21.62.33,1.51.91,3.31,1.39,5.36,1.39h.08c1.6,0,3.02-.27,4.31-.83.23.04.46,0,.7-.1.14-.1.31-.19.46-.27v-.02c1.2-.68,2.53-1.04,4.04-1.1.21.15.41.19.64.19.91.02,1.72.12,2.49.37.25.04.45.04.68,0,.41.12.81.31,1.2.54.6.35,1.22.64,1.93.87.23.08.46.08.68-.02.83.23,1.72.35,2.67.37h.29c.35,0,.66,0,.97-.02h.04c.83-.06,1.62-.21,2.34-.46.23.06.48.06.72-.02.52-.21.99-.44,1.45-.73ZM48.86,13.67v1.72c0,.27.06.5.21.7v2.51c0,.23.06.46.21.64v9.15c-.15.19-.21.39-.21.62v13.79c-.15.19-.21.42-.21.68v6.44c-.1.08-.21.19-.27.33-1.06.44-2.26.68-3.58.68h-.08c-1.43,0-2.73-.29-3.87-.83.02-.08.02-.17.02-.25v-15.04c0-.27-.06-.5-.21-.68v-8.29c0-.23-.06-.46-.21-.64v-8.97c.15-.21.21-.43.21-.66v-.97c.14-.21.21-.43.21-.72v-.48l3.89-.66.1.02s.06.02.1.06l3.71.62s-.02.12-.02.21Zm-10.09.95v.97c0,.23.08.46.21.66v8.97c-.12.19-.21.42-.21.64v8.29c-.12.19-.21.41-.21.68v13.69c-.97-.33-2.01-.52-3.11-.54-.29,0-.52.06-.72.19-1.2.02-2.32.19-3.34.56-.23.06-.39.19-.52.37-.08.02-.12.04-.19.06v-7.62c0-.27-.06-.5-.21-.68v-8.87c0-.27-.08-.5-.23-.68l-.02-10.81c.14-.21.23-.41.23-.66v-1.82c.12-.21.19-.46.19-.7v-.21c0-.19-.04-.33-.1-.5l1.16-.68c.43-.23.85-.46,1.33-.68.31.04.6-.02.87-.21.06-.02.15-.06.21-.08l.08-.02s.08-.02.12-.04c.19-.06.37-.1.54-.14l.5-.13s.08,0,.1-.02c.02,0,.08,0,.12-.02l3-.54c.04.23.08.42.19.58Zm20.51,1.68v1.61c0,.35.1.64.37.89t.04.04v6.83c-.15.19-.21.39-.21.62v7.75c-.15.21-.23.43-.23.7v14.21c-.1-.04-.19-.08-.29-.1-.19-.21-.39-.35-.62-.44-.99-.27-2.03-.44-3.13-.46-.29,0-.5.08-.7.23-1.14.06-2.18.23-3.15.56v-5.26c0-.27-.06-.5-.21-.68v-13.79c0-.23-.06-.43-.21-.62v-9.15c.14-.19.21-.42.21-.64v-2.51c.15-.21.21-.44.21-.7v-1.51l.91.15c.17.17.37.27.6.31l1.3.23h.02s.06,0,.08.02l.23.04c.33.08.7.17,1.06.25l.04.02c.06.02.12.02.19.04.06.02.1.04.17.06l.02.02c.08.04.17.08.27.12.02,0,.06,0,.08.02.31.14.62.14.93.02.37.19.77.39,1.16.6l.85.52Zm-30.9,1.74l.02.02v1.82c0,.21.04.42.19.56l.02,10.96c-.12.19-.19.35-.19.6v8.87c-.15.19-.21.41-.21.68v8.33c0,.17,0,.33.08.48-.99.35-2.05.56-3.21.6h-.23c-.29,0-.58,0-.87-.04-.27-.02-.54-.06-.83-.1-.15-.15-.31-.25-.52-.27-.83-.23-1.57-.54-2.28-.93h-.02s-.02-.02-.04-.02v-4.02c0-.27-.06-.5-.21-.68v-2.55c0-.23-.06-.43-.21-.62v-11.29c.15-.19.21-.42.21-.64v-1.41c.15-.21.23-.48.23-.72l-.02-2.28.33-.42c.19-.21.29-.46.31-.72l1.31-1.55c.5-.56.99-1.14,1.51-1.66.21-.06.39-.14.54-.29.04-.02.08-.02.08-.06.02-.04.08-.06.1-.13.02-.02.08-.04.1-.04,0-.04.02-.06.08-.08l.02-.02s.02-.04.06-.04c.5-.33.97-.64,1.45-.95l.52-.29.02-.02s.08-.04.13-.06l1.2-.73c.12-.08.23-.17.31-.27Zm-10.4,10.23l.02.02v1.49c0,.23.06.46.21.64v11.29c-.15.19-.21.39-.21.62v2.55c-.15.19-.21.41-.21.68v2.8c-.95-.27-1.95-.39-3.02-.39-.27,0-.54,0-.79.02-.15,0-.27,0-.39.02-.02-.17-.02-.33-.06-.48v-5.49c.08-.77.12-1.55.17-2.34v-.29c.06-.1.1-.23.14-.35.23-1,.52-1.97.83-2.96l2.15-5.68c.17-.39.31-.77.5-1.18.04-.13.12-.23.17-.33.06-.06.1-.1.14-.17.1-.17.23-.33.35-.48Zm-4.29,11.04l-.06.14h-.14s0-.04.02-.06c0-.02.02-.04.06-.1.02-.02.02-.04.04-.1l.12.06s-.02.06-.04.1v-.04Zm-2.34,11.14s.04.02.06.04v.04s-.04-.06-.06-.08Zm.08.6c.06.04.12.12.21.21v.02c-.06-.02-.12-.08-.17-.12l-.04-.1Z"/><path class="cls-1" d="m30.16,53.23c-.21.1-.35.25-.41.46-.06.02-.1.06-.17.08v.02c-.39.23-.83.41-1.2.58-.17.06-.27.21-.35.35-.06.17-.06.31-.02.48.08.14.21.27.37.33.15.08.31.08.46,0,.5-.19.95-.41,1.39-.68h-.02s.08-.04.12-.06c.19.06.37.04.58-.06,1.04-.52,2.26-.79,3.58-.83.21.12.41.19.64.19.39,0,.75.02,1.14.08.23.02.41,0,.6-.1.48.08.95.21,1.39.37.21.06.41.06.6,0,.25.15.54.27.81.42.1.06.23.15.35.21.06.21.21.35.41.46.68.31,1.41.56,2.2.73.17.19.37.29.6.33.54.06,1.12.1,1.7.1h.08c.23,0,.48,0,.7-.02.23-.02.44-.1.62-.25.1-.02.21-.02.31-.04.21-.04.41-.15.54-.33,1.14-.21,2.18-.62,3.11-1.18.17-.1.25-.23.29-.37.02-.19,0-.33-.08-.48-.1-.15-.23-.25-.37-.29-.17-.04-.33-.02-.48.08-.81.48-1.7.83-2.69,1.02-.14-.1-.33-.13-.52-.1-.1,0-.19,0-.23.02-.21-.12-.41-.19-.64-.15h-.64c-.48,0-.95,0-1.39-.08-.23-.02-.41-.02-.62.08-.62-.15-1.22-.31-1.78-.58-.19-.1-.37-.12-.56-.06-.1-.04-.19-.08-.27-.15l-.02-.02c-.31-.19-.66-.35-.99-.5-.1-.19-.23-.33-.43-.39-.56-.21-1.12-.37-1.72-.48-.17-.19-.37-.29-.6-.31-.48-.06-.95-.1-1.41-.1-.27,0-.48.1-.66.23-1.6.04-3.04.39-4.31,1.02Z"/><path class="cls-1" d="m26.58,54.89c-.48.04-.97.1-1.49.1h-.23c-.31,0-.6,0-.89-.04-.19-.02-.33-.02-.52-.04-.19-.02-.33.04-.46.15-.14.1-.21.25-.23.46-.02.15.04.31.14.43.1.13.25.21.44.23.17.02.33.02.52.04.31.02.64.04.99.04h.27c.56-.02,1.12-.06,1.66-.17.17-.02.31-.1.41-.25.1-.13.15-.31.1-.48-.02-.16-.1-.27-.23-.37-.17-.1-.33-.17-.5-.1Z"/><path class="cls-1" d="m28.19,62.1c-.12.04-.27.08-.39.14-.14.02-.29.12-.35.27-.08.14-.1.31-.06.48.06.14.17.29.31.39.12.04.31.06.48.02.15-.02.25-.08.41-.12h.04c.56-.21,1.08-.48,1.57-.77.23-.12.46-.25.7-.35.19.08.39.08.58,0,1.04-.42,2.18-.62,3.46-.62.19,0,.39,0,.58.02.14.15.35.23.56.25,1.24.12,2.38.48,3.38,1.06.87.54,1.89.95,3,1.18.23.06.46.02.66-.08.58.08,1.18.12,1.8.12h.08c.66,0,1.33-.04,1.95-.15.21-.04.39-.15.52-.33,1.02-.23,1.97-.58,2.82-1.1.17-.1.25-.23.29-.37.02-.19,0-.33-.08-.48-.1-.14-.23-.25-.35-.29-.19-.04-.35-.02-.5.08-.73.44-1.53.75-2.38.93-.21-.1-.39-.15-.56-.1-.56.08-1.12.13-1.7.13h-.08c-.52,0-1.01-.04-1.49-.1-.15-.17-.33-.27-.54-.31-.87-.19-1.66-.48-2.38-.91-1.22-.73-2.63-1.18-4.21-1.33-.23-.06-.46,0-.66.12-.23-.02-.5-.02-.7-.02-1.49,0-2.84.27-4.06.75-.23.06-.37.21-.46.39-.29.12-.58.27-.85.44-.44.27-.93.5-1.39.66Z"/><path class="cls-1" d="m37.14,64.29c-.1-.14-.23-.21-.39-.23-.39-.06-.81-.1-1.22-.13-.17,0-.31.06-.46.17-.12.13-.21.27-.21.44s.08.31.19.46c.1.12.27.19.41.19.37.02.73.04,1.1.1.17.02.31-.02.46-.13.15-.1.23-.23.25-.39.02-.19-.02-.33-.13-.48Z"/><path class="cls-1" d="m36.75,71.89c-.14.08-.25.21-.25.39-.04.17,0,.31.1.46.08.14.21.23.39.27.95.17,1.86.52,2.67.99.06.21.23.37.42.48.25.14.54.29.83.39.12.17.31.31.54.39.97.31,2.01.48,3.17.5.25.02.48-.06.66-.21.6-.02,1.18-.06,1.78-.15.21-.04.37-.14.52-.33.97-.25,1.88-.6,2.69-1.08.52-.31,1.12-.56,1.72-.75.17-.06.29-.17.37-.31.06-.14.08-.31.04-.48-.06-.17-.17-.29-.31-.35-.15-.08-.31-.1-.48-.04-.7.21-1.35.5-1.97.85-.73.41-1.49.72-2.32.91-.17-.1-.37-.1-.56-.08-.48.08-.99.11-1.51.13-.17-.15-.35-.21-.58-.21-.93-.02-1.78-.15-2.61-.39-.23-.08-.44-.08-.62,0-.21-.1-.41-.19-.62-.29-.19-.08-.35-.1-.54-.06-.93-.56-1.97-.93-3.07-1.14-.19-.04-.33,0-.48.1Z"/><path class="cls-1" d="m49.65,69.1c-.23.12-.46.25-.68.37-.17.08-.27.23-.31.37-.06.17-.06.31.02.48.08.15.21.25.37.31.14.04.31.02.48-.04.25-.12.52-.27.75-.42h.02c.19-.12.39-.23.62-.33.19.06.39.06.6-.02,1.06-.44,2.24-.64,3.52-.64.12,0,.29,0,.41.02.23.02.42-.04.6-.19.39.04.79.1,1.16.19.17.02.33,0,.5-.1.12-.1.23-.23.25-.39.04-.17,0-.31-.1-.46-.1-.14-.23-.25-.39-.27-.44-.1-.89-.17-1.35-.21-.15-.15-.31-.23-.5-.25h-.58c-1.53,0-2.9.25-4.14.77-.21.08-.33.21-.41.39-.31.13-.58.27-.83.41Z"/><path class="cls-1" d="m47.48,70.01c-.1,0-.23.04-.35.06-.19.04-.31.1-.39.25-.1.15-.17.31-.1.48.02.17.1.29.23.39.17.1.31.12.5.1.15-.04.33-.08.5-.12.15-.06.27-.17.37-.31.06-.12.08-.31.04-.44-.06-.19-.17-.31-.31-.39-.17-.08-.31-.1-.48-.02Z"/><path class="cls-1" d="m59.76,53.67c-.06-.17-.17-.29-.31-.35-1.3-.6-2.8-.89-4.41-.89-1.24,0-2.36.17-3.42.5-.15.04-.29.15-.33.29-.08.15-.1.31-.06.48.06.17.17.29.29.37.17.06.33.08.5.04.93-.29,1.95-.44,3.02-.44,1.43,0,2.71.27,3.89.81.14.04.31.04.46,0,.17-.08.29-.21.37-.35.06-.14.06-.31,0-.46Z"/><path class="cls-1" d="m61.75,59.39c.08.17.21.23.37.29.21.08.43.11.68.19.17,0,.31,0,.46-.1.15-.1.23-.25.27-.42.02-.19,0-.31-.1-.48-.1-.15-.23-.23-.39-.25-.21-.04-.39-.08-.58-.15-.17-.04-.31-.02-.45.06-.14.08-.25.21-.31.39-.04.14-.02.31.06.46Z"/><path class="cls-1" d="m51.74,60.55c-.14.06-.27.17-.35.31-.08.14-.1.29-.08.46.08.17.19.29.31.37.17.08.31.1.48.06.1-.02.21-.06.31-.08.15-.04.27-.12.37-.27.08-.14.1-.31.06-.48-.04-.17-.12-.29-.27-.37-.15-.1-.31-.12-.48-.08-.12.02-.23.06-.35.08Z"/><path class="cls-1" d="m55.76,60.11c-.21-.02-.33.04-.46.14-.17.1-.21.25-.25.44-.02.17.06.31.17.46.1.12.23.19.43.21.17.02.33.02.5.04.17.02.31-.04.46-.14.12-.1.19-.25.21-.42.02-.19-.04-.33-.14-.45-.1-.15-.25-.21-.41-.23-.17-.02-.33-.02-.5-.04Z"/><path class="cls-1" d="m24.57,20.51s.04-.06.1-.08l-.19.12s.06-.02.08-.04Z"/><path class="cls-1" d="m17.34,29.23s.02-.08.06-.12l-.1.21s.04-.06.04-.08Z"/><path class="cls-1" d="m17.52,28.94v-.02s0-.02.02-.02l-.02.04Z"/><path class="cls-1" d="m15.58,27.34l.12-.17s-.06.06-.1.08c-.02.02-.02.06-.02.08Z"/><path class="cls-1" d="m84.39,30.06c.06-.13.06-.25.02-.39-.06-.14-.17-.23-.29-.31-.12-.04-.25-.08-.39-.02-.14.06-.23.15-.29.27-.21.31-.14.87.21,1.7.29.64.54,1.18.77,1.6.06.15.17.21.31.25.1.04.25.02.39-.04.12-.06.21-.17.23-.27.06-.17.04-.29-.02-.41-.21-.39-.44-.91-.7-1.53v.02c-.21-.44-.25-.7-.23-.85Z"/><path class="cls-1" d="m86.04,38.84c-.12.04-.21.12-.29.27-.04.14-.06.25,0,.39.19.48.29.83.31,1.1-.06.06-.12.14-.14.27-.06.14-.02.27.04.39.06.12.17.21.31.25.37.1.62.02.77-.29.1-.1.12-.31.1-.62-.04-.31-.19-.81-.41-1.45-.06-.14-.14-.23-.27-.29-.14-.06-.29-.08-.41-.02Z"/><path class="cls-1" d="m80.06,66.53c-.15.02-.25.1-.33.23-.31.48-.43.73-.39.77,0,.17.06.29.17.39.1.1.21.15.35.15s.27-.04.37-.15c.1-.1.15-.23.15-.39.04.02.14-.04.25-.21.06-.1.1-.25.06-.39-.02-.12-.1-.23-.23-.33-.12-.08-.25-.1-.39-.06Z"/><path class="cls-1" d="m49.88,3.56c.02.15.08.25.19.35.1.08.27.12.41.1.21,0,.5.08.89.27.68.31,1.26.33,1.78.06.12-.06.21-.17.27-.31.04-.15.04-.27-.02-.39-.06-.13-.17-.21-.31-.25-.14-.06-.27-.04-.39.02-.27.1-.56.08-.89-.06-.62-.31-1.12-.44-1.43-.37-.14.02-.29.08-.35.19-.12.1-.17.25-.15.39Z"/><path class="cls-1" d="m48.84,2.84c-.14-.02-.27,0-.37.06-.06-.04-.1-.06-.17-.08-.15-.06-.27-.04-.41.02-.12.06-.21.15-.25.29-.06.12-.06.25.02.39.12.31.35.48.66.48.19.02.44-.04.7-.23.12-.08.21-.19.23-.33.02-.14-.02-.29-.08-.39-.08-.12-.19-.19-.33-.21Z"/><path class="cls-1" d="m41.08,2.86c-.1.02-.15.04-.17.06-.35.23-.39.46-.17.68.02.1.12.19.33.25.02.02.1.02.25.02.1-.02.29-.04.6-.06.15-.02.25-.08.37-.19.08-.1.1-.23.1-.37-.02-.15-.1-.27-.21-.35-.1-.1-.23-.14-.37-.12-.23.02-.39.04-.5.06-.06-.02-.1-.02-.17,0-.04,0-.06,0-.08.02Z"/><path class="cls-1" d="m39.5,3s-.1.02-.15.04c-.1.02-.27.02-.5.02h-.02c-.6.02-1.22.12-1.91.31-.14.04-.25.12-.31.25-.08.1-.12.23-.06.37.04.15.12.25.25.33.1.06.23.08.37.04.62-.15,1.18-.25,1.7-.27.29,0,.5,0,.62-.02.1-.02.21-.04.23-.06.19-.06.29-.17.31-.27.19-.23.15-.44-.14-.66-.1-.08-.23-.1-.39-.08Z"/><path class="cls-1" d="m22.62,9.59c.06.14.15.21.29.27.12.04.25.04.41-.02.64-.31,1.08-.5,1.32-.52.52-.08.81-.41.87-1.08.02-.15-.02-.27-.12-.37-.1-.1-.21-.17-.37-.19-.12-.02-.25.02-.35.12-.1.1-.19.21-.19.35v.12c-.29.02-.83.23-1.62.62-.15.06-.23.14-.27.31-.06.1-.04.23.02.37Z"/><path class="cls-1" d="m29.5,5.61c-.15-.06-.27-.02-.39.02-.06.02-.12.06-.17.12-.04,0-.1,0-.12.04-.17,0-.27.1-.33.21-.08.1-.1.25-.06.41,0,.12.1.23.21.31.29.19.54.21.77.08.19-.06.33-.23.43-.56.04-.15.04-.25-.02-.39-.06-.12-.17-.21-.31-.25Z"/><path class="cls-1" d="m27.67,7.42c.12-.04.23-.12.33-.23.08-.12.1-.25.08-.39-.06-.14-.12-.25-.23-.33-.14-.1-.27-.12-.39-.08-.95.21-1.49.5-1.66.89-.08.12-.1.25-.06.39.04.12.12.23.25.31.12.06.25.08.39.04.12-.04.23-.13.31-.23.12-.15.46-.27.97-.37Z"/><path class="cls-1" d="m14.6,16.9c-.02-.12-.1-.23-.21-.33-.12-.08-.25-.1-.39-.08-.15.02-.25.08-.33.21-.06.1-.1.21-.1.33-.37.08-.81.54-1.35,1.37-.08.13-.1.25-.08.39.02.15.08.25.21.33.12.06.23.1.39.08.14-.02.25-.1.33-.23.33-.54.64-.85.85-.95.56-.21.79-.56.68-1.12Z"/><path class="cls-1" d="m6.3,30.3c.12-.06.21-.14.27-.27.06-.15.06-.27,0-.39-.06-.15-.15-.23-.27-.31-.15-.06-.27-.06-.39,0-.79.33-1.12.91-1.04,1.8.04.52-.04.93-.19,1.28-.08.1-.08.23-.06.37.06.15.14.25.27.31.12.06.23.08.39.04.15-.04.25-.1.31-.25.25-.48.37-1.08.31-1.84-.04-.35.1-.6.39-.75Z"/><path class="cls-1" d="m3.27,39.15c-.25.62-.39,1.08-.41,1.39-.02.27,0,.48.08.62.13.27.35.39.66.37.15-.02.25-.08.35-.19.12-.1.14-.23.12-.37,0-.17-.08-.27-.19-.37.04-.25.19-.62.37-1.1.02-.15.02-.25-.02-.39-.06-.15-.17-.23-.31-.27-.15-.06-.27-.06-.39,0-.14.06-.23.14-.27.31Z"/><path class="cls-1" d="m54.54,82.58c-.12.06-.21.17-.23.33-.04.15-.02.27.02.39.08.12.19.21.31.25.37.14.99,0,1.86-.46.12-.06.21-.17.25-.31.04-.14.02-.25-.04-.39-.06-.15-.17-.23-.29-.27-.14-.04-.27,0-.39.04-.52.27-.89.39-1.1.37-.12-.04-.25,0-.39.04Z"/><path class="cls-1" d="m33.89,82.13c-.15-.04-.27,0-.39.04-.12.06-.21.17-.25.31-.04.17-.02.27.04.39.06.14.17.23.31.27.5.14.87.27,1.14.33.1.02.21.04.27.06.02.02.04.02.06.02.04.02.06.02.08.02.1.02.19.02.27.02.04-.1-.1-.39-.41-.85.31-.08.46-.15.46-.17h-.02s-.02-.02-.06-.02c-.02-.02-.04-.02-.1-.02h.04-.06s-.12-.06-.23-.08c-.27-.08-.64-.19-1.14-.33Z"/><path class="cls-1" d="m35.65,83.41v-.06l-.17.15c.08-.02.1-.06.17-.08Z"/><path class="cls-1" d="m284.45,16.61c.42,0,.89,0,1.36.07h1.31c.27,0,.47,0,.67.07v4.18c0,.74,0,1.63-.07,2.8,0,1.15,0,2.39-.07,3.61,0,1.29,0,2.45-.07,3.49-.07,1.01-.07,1.83-.07,2.45,0,.82-.07,1.5-.13,1.98-.07.34-.27.55-.47.75-.35.2-.89.4-1.64.61-.27.07-.49.13-.69.34-.34.27-.54.55-.47.82-.07.34.13.69.61.89.22.15.62.22,1.09.22h.08c.27,0,.81-.07,1.56-.15.74-.07,1.64-.07,2.53-.07h1.7c.62.07,1.09.07,1.56.07.42.08.7.08.84.08.27.07.54,0,.89-.08.47-.13.74-.4.81-.82v-.27c0-.27-.2-.55-.61-.82-.2-.13-.49-.27-.82-.34-.69-.13-1.17-.27-1.51-.47h-.07c-.2-.13-.34-.28-.4-.42v-.07c-.07-.2-.13-.55-.2-1.02v-.07c-.07-.67-.13-1.78-.13-3.34v-14.36c.13-.07.34-.07.67-.07h4.1c.69.07,1.23.13,1.56.2.22.07.42.13.49.35.15.2.22.61.28,1.09.07.49.13.89.27,1.09v.07c.2.4.54.61.89.54h.07c.27,0,.54-.13.82-.4.13-.2.27-.47.34-.74v-.07c.07-.9.2-1.73.34-2.33.07-.61.22-1.16.42-1.71.14-.4.2-.74.14-.94-.2-.55-.49-.84-.89-.77-.13,0-.27.08-.47.22-.07,0-.22.07-.35.2-.2.07-.47.22-.75.35-.34.07-.81.13-1.43.2h-13.94c-1.44-.07-2.32-.13-2.8-.2-.2,0-.34-.07-.47-.2-.2-.08-.27-.15-.27-.22q-.07-.07-.13-.13c-.15-.07-.22-.13-.22-.22q-.07,0-.07-.07c-.2-.34-.47-.54-.74-.47q-.07,0-.07.07c-.28,0-.49.13-.69.34-.2.22-.34.49-.42.77v.07c-.07,1.01-.13,1.98-.34,2.79-.22.89-.28,1.58-.35,1.98v.07c0,.28.07.55.14.82v-.07c.15.47.42.67.77.67h.14c.13.07.34,0,.54-.13.22-.07.49-.4.69-1.01.27-.49.55-.9.75-1.17.07-.2.13-.27.13-.34.07-.07.13-.07.2-.14.2-.22.49-.42.76-.49.34-.13.88-.2,1.5-.13h.82Z"/><path class="cls-1" d="m306.59,14.9v.07c-.07.42.13.7.62.9.2.13.47.27.88.34h.07c.62.13.97.34,1.17.54h.07c.2.27.27.69.27,1.29v1.11c.07.4.07.94,0,1.71v7.64c-.07,1.36-.07,2.53-.13,3.55-.07,1.09-.07,1.93-.13,2.4,0,.54-.07.96-.27,1.23-.07.22-.28.35-.49.48-.35.13-.82.27-1.43.4h.07c-.35.07-.69.13-.89.27-.49.2-.75.55-.69.89,0,.47.27.82.75.96.2.07.54.15,1.02.15h1.29c.35-.08.76-.08,1.23-.15h1.58c1.97,0,3.9,0,5.61.07,1.7.08,3.14.08,4.23.15,1.16.07,1.83.07,1.97.07h.14c.22-.07.42-.13.62-.28.22-.2.28-.34.35-.42h.07c.07-.14.2-.4.34-.88.2-.42.35-.82.42-1.29v.07c.2-.48.34-.89.4-1.24.13-.47.2-.74.27-.81.07-.34,0-.62-.07-.97-.13-.47-.4-.74-.82-.74h-.07c-.2-.07-.47.07-.74.34l-.07.07c-.15.2-.35.49-.57.97-.4.74-.81,1.28-1.21,1.63h-.07c-.42.34-.89.62-1.38.75-.2.07-.54.07-1.02.07-.47.07-.96.07-1.38.13h-.88c-.75,0-1.36-.07-1.91-.13-.47-.07-.89-.07-1.23-.07l-.07-.07c-.07-.13-.13-.27-.2-.35-.07-.34-.13-.75-.2-1.23-.08-.54-.15-1.09-.15-1.64v-4.23c.07-.49.07-.89.07-1.16h1.51c.62,0,1.23,0,1.85.07.61,0,1.08.07,1.43.13.2.07.42.13.49.27.07.2.2.55.34,1.04.07.27.2.54.4.74l-.07-.07c.28.4.55.62.89.54.42.08.76-.13.96-.67.07-.2.13-.54.07-1.02v-1.02c-.07-.35-.07-.69-.07-1.16v-1.24c.07-.4.07-.81.07-1.28.07-.28.07-.55,0-.77-.07-.54-.4-.81-.89-.74-.27,0-.47.13-.67.34h-.07l-.07.07c-.22.13-.35.4-.42.75-.2.49-.34.82-.54,1.02-.15.13-.42.2-.77.27-.47.07-1.28.13-2.31.13h-2.05v-2.66c0-.75,0-1.43.07-2.2v-2.05c.07-.47.07-.89.07-1.09s.07-.34.13-.4c.47-.07,1.02-.07,1.63-.07.69,0,1.31,0,1.91.07.54,0,.96.07,1.31.13h.07c.4.07.74.2,1.09.4.34.28.54.82.74,1.58.08.22.15.49.28.69v.07c.2.34.54.54.89.61h.07c.4,0,.74-.2.94-.67l-.07.07c.13-.27.2-.61.27-.96v-.07c0-.35,0-.82-.07-1.38v-2.18c-.07-.2-.13-.34-.2-.47l-.07-.07c-.34-.34-.61-.47-.88-.34-.15,0-.35,0-.69.07h-1.23c-.42.07-.82.07-1.23.07h-5.34c-1.23,0-2.25-.07-3.07-.13-.89-.07-1.7-.07-2.53-.07-.34,0-.67.07-.94.2-.49.2-.69.47-.69.88Zm7.37,12.44v.13h-.13l.13-.13Z"/><path class="cls-1" d="m267.71,13.75c-.34-.49-.61-.62-.94-.42-.15,0-.28.07-.42.13l-.07.07c-.13.08-.27.28-.4.49-.2.2-.35.54-.55.94-.2.35-.4.63-.54.84-.07.07-.07.14-.15.2v.13c-.07.13-.07.27-.07.34l-.07.13v.07c0,.07,0,.2-.07.27v.07c-.34.75-.82,1.79-1.29,3.07-.49,1.24-.96,2.53-1.5,3.98-.55,1.43-1.11,2.79-1.58,4.17-.55,1.29-1.02,2.45-1.36,3.48-.42.96-.7,1.64-.9,2.06v.07c-.34.67-.61,1.15-.81,1.5-.2.34-.49.55-.75.62l-.07.07c-.34.2-.75.34-1.29.47-.42.14-.69.34-.89.54-.27.28-.4.55-.34.82-.07.34.07.55.4.75.2.13.55.22,1.02.22.2,0,.55,0,.96-.08.47,0,.89,0,1.36-.07h3.07c.49.07.89.07,1.24.07s.67-.07.94-.13c.49-.2.69-.49.75-.89v-.07c.07-.34-.13-.62-.55-.89-.2-.13-.54-.27-.88-.34-.62-.2-1.02-.4-1.16-.61-.07-.15-.13-.22-.13-.28v-.13c0-.28.07-.69.2-1.29.2-.76.4-1.51.67-2.33.28-.81.55-1.64.89-2.39.27-.07.69-.07,1.31-.07h2.25c.82-.07,1.56-.07,2.25-.07.34,0,.55,0,.69.07.4,1.16.82,2.25,1.16,3.28.4,1.09.69,1.98.82,2.74.07.2.07.4.07.62q-.07.07-.13.13l-.07.07c-.15.07-.42.2-.82.34-.49.07-.82.2-1.02.4-.28.27-.42.55-.35.76-.07.34.15.61.55.82v.07c.2.07.62.13,1.16.13h2.59c.84,0,1.64,0,2.4.07.82.08,1.58.08,2.18.08s1.02-.08,1.23-.22c.49-.2.69-.55.62-.89.07-.34-.13-.62-.54-.82-.22-.13-.48-.27-.84-.4-.47-.07-.88-.2-1.23-.4-.27-.2-.54-.49-.74-.82-.35-.49-.69-1.16-1.02-2.06-.2-.4-.49-1.09-.82-2.1-.34-.97-.82-2.12-1.31-3.42v-.07c-.47-1.29-1.01-2.74-1.56-4.17-.54-1.51-1.09-2.94-1.56-4.23-.35-.96-.62-1.85-.96-2.6-.22-.74-.42-1.43-.63-1.91-.2-.47-.34-.74-.4-.88v-.07Zm-1.97,6.48l.07.07c.2.62.47,1.29.81,2.18.28.89.55,1.71.82,2.45v.07c.2.55.34,1.04.47,1.44.2-.07.42-.07.62-.07h.07c-.34.4-.49.61-.55.54.15-.4.15-.54.07-.4-.07.07-.07.13-.07.2-.07-.07-.07-.2-.13-.27h-4.37c.07-.2.15-.54.28-.89.2-.69.47-1.43.81-2.25.28-.82.55-1.64.89-2.39.07-.27.15-.49.22-.69Z"/><path class="cls-1" d="m177.53,16.68h4.1c.69.07,1.23.13,1.58.2.2.07.4.13.47.35.13.2.2.61.27,1.09.07.49.2.89.27,1.09v.07c.22.4.55.61.89.54h.07c.28,0,.55-.13.84-.4.13-.2.27-.47.34-.74v-.07c.07-.9.2-1.73.34-2.33.07-.61.2-1.16.42-1.71.13-.4.2-.74.13-.94-.2-.55-.49-.84-.82-.77-.2,0-.34.08-.55.22-.07,0-.2.07-.34.2-.22.07-.49.22-.75.35-.34.07-.82.13-1.43.2h-13.87c-1.43-.07-2.39-.13-2.87-.2-.2,0-.34-.07-.47-.2-.2-.08-.27-.15-.27-.22q-.07-.07-.15-.13c-.13-.07-.2-.13-.2-.22v-.07c-.27-.34-.55-.54-.82-.47q-.07,0-.07.07c-.2,0-.48.13-.69.34-.2.22-.34.49-.4.77v.07c0,1.01-.13,1.98-.34,2.79-.2.89-.27,1.58-.34,1.98v.07c0,.28.07.55.14.82v-.07c.13.47.4.67.74.67h.13c.13.07.34,0,.55-.13.2-.07.47-.4.74-1.01.22-.49.49-.9.7-1.17.07-.2.13-.27.2-.34.07-.07.13-.07.2-.14.2-.22.4-.42.69-.49.34-.13.89-.2,1.5-.13h.81c.42,0,.89,0,1.38.07h1.37c.2,0,.4,0,.61.07v4.18c0,.74,0,1.63-.07,2.8,0,1.15,0,2.39-.07,3.61,0,1.29,0,2.45-.07,3.49-.07,1.01-.07,1.83-.07,2.45,0,.82-.07,1.5-.13,1.98-.07.34-.27.55-.49.75-.34.2-.88.4-1.64.61-.27.07-.47.13-.67.34-.35.27-.49.55-.49.82-.07.34.13.69.62.89.2.15.61.22,1.09.22h.07c.28,0,.82-.07,1.58-.15.75-.07,1.63-.07,2.52-.07h1.71c.62.07,1.09.07,1.58.07.4.08.67.08.81.08.27.07.55,0,.89-.08.47-.13.75-.4.82-.82v-.27c0-.27-.2-.55-.62-.82-.2-.13-.47-.27-.82-.34-.67-.13-1.15-.27-1.5-.47h-.07c-.2-.13-.34-.28-.4-.42v-.07c-.07-.2-.13-.55-.2-1.02v-.07c-.07-.67-.13-1.78-.13-3.34v-14.36c.13-.07.34-.07.67-.07Z"/><path class="cls-1" d="m191.26,14.9c-.07.35.07.62.4.9.2.2.55.34,1.09.4.55.07.96.2,1.23.4.13.07.2.2.27.4.07.28.07.69.13,1.24,0,.27,0,.76.07,1.36,0,.69,0,1.44.08,2.18v7.52c-.08,1.09-.08,2.05-.15,2.94v.07c0,.88,0,1.51-.07,1.91v.07c-.07.47-.13.88-.2,1.16-.07.2-.13.42-.27.49-.27.2-.67.34-1.16.4-.47.07-.82.2-1.02.34h.07c-.4.2-.61.47-.61.82-.07.34.13.67.54.96h-.07c.2.13.55.2,1.09.2h4.17c.62.07,1.31.07,1.98.15.75.07,1.43.07,2.05.07.35,0,.62-.07.89-.22.49-.2.69-.49.76-.82v-.07c0-.34-.13-.69-.49-.89-.2-.2-.54-.34-1.02-.4v.07c-.62-.13-1.09-.34-1.43-.54-.28-.13-.42-.35-.49-.62-.14-.35-.2-.82-.2-1.43-.07-.62-.07-1.38-.07-2.33-.07-1.02-.07-2.05-.07-3.07,0-2.32,0-4.17.07-5.61v-3.34c.07-.74.13-1.29.2-1.64,0-.34.07-.61.13-.89.07-.13.14-.27.34-.4v-.07c.22-.2.62-.34,1.17-.47.49-.07.75-.13.96-.34.34-.2.55-.55.55-.9,0-.4-.22-.67-.62-.81-.2-.13-.47-.2-.96-.2-.62,0-1.17,0-1.78.07-.54.07-1.23.07-2.12.07-.4,0-.82,0-1.31-.07-.47,0-.96,0-1.43-.07h-1.23c-.34,0-.61.07-.82.13-.47.2-.74.47-.67.88Z"/><path class="cls-1" d="m148.7,13.89c-.97.34-1.78.74-2.4,1.36h.07c-.74.62-1.29,1.29-1.71,2.18-.34.89-.54,1.78-.54,2.74,0,1.7.54,3.14,1.58,4.44,1.02,1.17,2.31,2.32,4.02,3.34h-.07c1.24.77,2.2,1.44,2.8,2.05.61.62.96,1.17,1.16,1.64.22.47.35.96.35,1.29v.07c-.07,1.17-.42,2.05-1.11,2.74-.67.62-1.56.96-2.66,1.02-.49,0-.96-.07-1.43-.27-.62-.2-1.17-.47-1.64-.89-.47-.34-.82-.82-1.09-1.36v-.07c-.34-.62-.62-1.11-.82-1.44v-.07c-.35-.62-.69-.89-.96-.89-.2-.07-.34,0-.47.07-.13.07-.28.2-.49.49q-.07,0-.07.07c-.2.34-.35.54-.28.67,0,.35.08.9.22,1.64.13.62.27,1.31.34,1.91v.07c0,.13.15.34.35.69.2.34.47.61.74.81,0,.07.07.07.13.07.42.22.97.35,1.58.57.62.13,1.23.27,1.85.34.62.07,1.16.13,1.56.13.62,0,1.24-.07,1.93-.2h-.08c.62-.07,1.23-.27,1.85-.49.62-.2,1.16-.49,1.63-.75,1.04-.76,1.86-1.56,2.4-2.59.55-1.02.82-2.06.82-3.09,0-1.15-.2-2.25-.69-3.13-.47-.9-1.16-1.71-1.98-2.47-.76-.74-1.63-1.36-2.6-1.98-1.01-.74-1.97-1.36-2.72-1.85-.69-.54-1.16-1.09-1.5-1.63-.35-.55-.55-1.17-.55-1.85,0-1.02.34-1.91,1.02-2.6v-.07c.61-.61,1.51-.94,2.53-1.01.47,0,.88.07,1.21.2.35.14.7.34.97.54h.07c.13.07.34.34.67.82.34.4.62.88.82,1.51.15.34.35.67.62.88.27.2.55.34.89.34.4.07.69-.2.82-.74v-.07c.07-.2.07-.49.07-.82,0-.07-.07-.35-.13-.76,0-.34-.07-.76-.15-1.23-.07-.4-.07-.75-.13-.96.07-.14,0-.35-.2-.62-.13-.34-.34-.54-.54-.61q-.07-.07-.15-.07c-.34-.07-.94-.2-1.78-.4-.88-.22-1.78-.28-2.66-.28h-.07c-1.29,0-2.47.2-3.41.55Z"/><path class="cls-1" d="m233.96,13.96c-.34-.07-.82-.07-1.31-.07s-.88.07-1.08.2h-.07c-.42.2-.62.54-.62.88,0,.28.13.55.49.9q.07,0,.07.07c.2.13.54.27.94.34l.07.07c.62.07.97.2,1.17.4l.07.07c.13.2.2.42.2.62v9.15c0,1.29,0,2.53-.07,3.69v2.79c-.07.77-.07,1.31-.07,1.51-.07.54-.27.96-.55,1.24-.34.34-.89.54-1.63.74-.42.07-.76.2-.96.34v.07c-.35.2-.49.49-.42.82,0,.47.22.76.69.96.2.08.55.08.96.08.27,0,.81,0,1.64-.08.81-.07,1.83-.07,3.07-.07,3.61,0,6.34,0,8.13.07h.07c1.78.08,2.72.15,2.93.15.13,0,.35-.07.69-.22h.07c.49-.2.69-.55.75-.89.07-.47.13-.89.27-1.23.08-.4.22-.82.35-1.16.13-.49.27-.96.47-1.5q0-.07.07-.07c.07-.42.07-.77,0-.97v-.07c-.07-.54-.34-.82-.74-.76-.22-.07-.49.07-.82.35-.2.07-.42.34-.69.74-.49.63-.82,1.17-1.16,1.51-.27.34-.55.62-.75.82-.34.2-.54.42-.67.49-.22.07-.35.07-.42.07h-.07c-.27.07-.62.07-1.09.07h-3.21c-.62-.07-1.09-.07-1.58-.13-.07-.07-.2-.13-.4-.35-.2-.2-.27-.34-.34-.55-.08-.4-.08-.94-.08-1.7v-.07c-.07-.82-.07-1.71-.14-2.74-.07-.96-.07-1.91-.07-2.94,0-2.67,0-4.92.07-6.75,0-1.71.07-3.02.22-3.84v-.2c.07-.07.27-.2.47-.27.34-.13.82-.27,1.43-.4.35-.07.69-.2.89-.34l.07-.07c.35-.28.49-.55.42-.84,0-.4-.2-.67-.62-.88l.07.07c-.2-.13-.54-.2-1.02-.2h-1.29c-.62.07-1.17.07-1.78.07-.61.07-1.23.07-1.71.07s-.94,0-1.29-.07h-.07Z"/><path class="cls-1" d="m207.66,15.87v.07c.2.13.55.27.96.34q.07,0,.07.07c.61.07,1.02.2,1.23.4v.07c.2.2.27.42.2.62v.07c.07.4.07.89.07,1.51v7.58c-.07,1.29-.07,2.53-.07,3.69-.07,1.09-.07,2.05-.07,2.79-.07.77-.07,1.31-.07,1.51-.07.54-.2.96-.49,1.24-.34.34-.88.54-1.7.74-.4.07-.67.2-.89.34q-.07,0-.07.07c-.27.2-.4.49-.4.82,0,.47.2.76.69.96h.07c.2.08.47.08.96.08.2,0,.74,0,1.63-.08.74-.07,1.78-.07,3.01-.07,3.63,0,6.35,0,8.2.07,1.78.08,2.74.15,2.94.15s.42-.07.75-.22c.47-.2.69-.55.75-.89.07-.47.2-.89.27-1.23h.07c.07-.4.2-.82.27-1.16.13-.49.35-.96.55-1.5v-.07c.07-.42.07-.77.07-.97v-.07c-.13-.54-.42-.82-.75-.76-.27-.07-.54.07-.82.35-.2.07-.47.34-.67.74-.49.63-.89,1.17-1.24,1.51-.27.34-.54.62-.74.82-.28.2-.49.42-.69.49-.13.07-.27.07-.34.07h-.13c-.28.07-.63.07-1.04.07h-3.28c-.54-.07-1.02-.07-1.51-.13-.13-.07-.27-.13-.4-.35-.2-.2-.27-.34-.34-.55-.08-.4-.15-.94-.15-1.7v-.07c-.07-.82-.07-1.71-.13-2.74v-9.69c.07-1.71.13-3.02.2-3.84v-.07q0-.07.08-.13c.07-.07.2-.2.4-.27h.07c.34-.13.82-.27,1.44-.4.34-.07.62-.2.82-.34l.07-.07c.34-.28.47-.55.4-.84,0-.4-.2-.67-.54-.88v.07c-.22-.13-.55-.2-1.02-.2h-1.31c-.62.07-1.16.07-1.77.07-.62.07-1.17.07-1.64.07s-.96,0-1.38-.07c-.4-.07-.82-.07-1.29-.07-.54,0-.96.07-1.16.2-.47.2-.67.54-.61.88-.07.28.13.55.47.9Z"/><path class="cls-1" d="m128.82,16.21c.54.07.94.2,1.23.4h-.07c.2.07.27.2.34.4.07.28.07.69.15,1.24v1.36c.07.69.07,1.44.07,2.18v7.52c0,1.09,0,2.05-.07,2.94v.07c-.08.88-.08,1.51-.08,1.91v.07c-.07.47-.13.88-.2,1.16-.07.2-.13.42-.35.49-.27.2-.61.34-1.08.4-.49.07-.82.2-1.04.34h.07c-.4.2-.61.47-.61.82-.07.34.07.67.47.96.2.13.55.2,1.11.2h4.15c.63.07,1.24.07,1.98.15.7.07,1.37.07,2.06.07.34,0,.61-.07.81-.22.49-.2.77-.49.77-.82v-.07c.07-.34-.15-.69-.49-.89-.22-.2-.55-.34-1.02-.4l.07.07c-.69-.13-1.16-.34-1.5-.54-.22-.13-.42-.35-.49-.62-.07-.35-.13-.82-.22-1.43,0-.62,0-1.38-.07-2.33v-8.68c.07-1.43.07-2.59.07-3.34.08-.74.08-1.29.15-1.64.07-.34.13-.61.2-.89,0-.13.07-.27.28-.4l.07-.07c.2-.2.61-.34,1.09-.47.47-.07.81-.13,1.01-.34.35-.2.55-.55.49-.9,0-.4-.22-.67-.55-.81-.2-.13-.54-.2-.94-.2-.62,0-1.24,0-1.79.07-.61.07-1.28.07-2.12.07-.4,0-.88,0-1.36-.07-.47,0-.94,0-1.43-.07h-1.16c-.34,0-.69.07-.89.13-.49.2-.75.47-.69.88,0,.35.13.62.47.9.22.2.55.34,1.11.4Z"/><path class="cls-1" d="m98.95,14.02h-1.02c-.4,0-.74.07-.96.13-.42.2-.62.54-.55.88-.07.35.13.7.55.97h.07c.22.13.42.2.69.27h.07c.61.07,1.02.2,1.29.4.22.07.28.27.35.49.07.4.13.96.13,1.71.07,1.01.07,2.12.07,3.28.07,1.16.07,2.32.07,3.34v6.08c0,.47,0,1.02-.07,1.56,0,.9-.07,1.64-.2,2.13-.07.34-.2.55-.42.75h-.07c-.35.2-.89.34-1.56.4-.35.07-.62.13-.84.27-.34.2-.47.4-.54.76v.07c0,.34.2.67.54.96h.08c.27.13.69.2,1.23.2h.89c.34.07.62.07.96.07.89.08,1.7.15,2.6.15.89.07,1.77.13,2.59.13h2.05c1.78,0,3.42-.2,4.99-.55,1.51-.35,2.8-.89,3.96-1.51.89-.54,1.83-1.29,2.74-2.32h.07c.89-1.02,1.71-2.32,2.32-3.75.62-1.51.96-3.15,1.02-4.99,0-1.04-.13-2.12-.47-3.15-.28-1.02-.69-2.04-1.16-3.01h-.07c-.49-.94-1.11-1.78-1.85-2.45-.49-.49-1.24-.96-2.2-1.56-1.01-.55-2.18-1.04-3.55-1.44h-.08c-1.36-.4-2.93-.61-4.71-.67-1.02,0-2.18.07-3.34.13-1.16.07-2.25.07-3.29.13-1.01.07-1.77.13-2.39.13Zm5.27,2.18c.13-.07.34-.07.61-.13.42-.07.96-.07,1.56-.07.89,0,1.78.07,2.67.27.89.13,1.71.4,2.52.74.75.28,1.38.62,2,1.02.76.55,1.36,1.24,1.91,2.05.54.9.94,1.78,1.29,2.8.27.97.4,1.98.4,3.02,0,1.9-.34,3.61-.96,5.06-.61,1.43-1.5,2.66-2.52,3.55-.62.47-1.38.96-2.13,1.31-.81.34-1.56.54-2.31.67-.75.14-1.44.2-2,.2-.2,0-.47,0-.82-.07-.34-.07-.67-.2-1.01-.34h.07c-.35-.13-.69-.27-.89-.4,0-.07-.07-.15-.2-.28-.13-.2-.2-.55-.28-1.02-.07-.74-.07-1.71-.07-2.74-.07-1.01-.07-2.18-.07-3.48v-8.41c.07-1.01.07-1.83.07-2.52,0-.55,0-.89.07-1.09q0-.07.08-.13Z"/><path class="cls-1" d="m276.73,49.75c-.49,0-.89.07-1.09.2h-.07c-.42.2-.62.54-.62.88,0,.28.13.55.47.9q.08,0,.08.07c.2.13.54.27.96.34l.07.07c.61.07.96.2,1.16.4l.07.07c.13.2.2.42.2.62v9.15c0,1.29,0,2.53-.07,3.69,0,1.09,0,2.05-.07,2.79v1.51c-.07.54-.27.96-.55,1.24-.34.34-.89.54-1.63.74-.42.07-.75.2-.96.34v.07c-.35.2-.49.49-.49.82,0,.47.28.75.76.96.2.08.55.08.96.08.27,0,.82,0,1.64-.08.81-.07,1.83-.07,3.07-.07,3.61,0,6.35,0,8.12.07h.07c1.79.08,2.74.15,2.95.15.13,0,.34-.07.67-.22h.07c.42-.2.69-.55.76-.89.07-.47.13-.89.27-1.23.07-.4.2-.82.34-1.16.13-.49.28-.96.49-1.5q0-.07.07-.07c.07-.42.07-.77,0-.97v-.07c-.13-.54-.42-.82-.75-.76-.2-.07-.47.07-.81.35-.2.07-.42.34-.69.74-.47.63-.82,1.17-1.16,1.51-.27.34-.55.62-.75.82-.34.2-.54.42-.75.49h.08c-.22.07-.35.07-.42.07h-.07c-.28.07-.62.07-1.09.07h-3.21c-.62-.07-1.11-.07-1.58-.14-.07-.07-.2-.13-.4-.35-.2-.2-.27-.34-.35-.55-.07-.4-.07-.94-.13-1.7v-.07c0-.82,0-1.71-.07-2.74-.07-.96-.07-1.91-.07-2.94,0-2.67,0-4.92.07-6.75,0-1.71.07-3.02.2-3.84v-.2c.08-.07.28-.2.49-.27.34-.14.81-.27,1.43-.4.35-.07.62-.2.82-.34q.07,0,.13-.07c.28-.28.42-.55.42-.84,0-.4-.2-.67-.62-.88l.07.07c-.2-.13-.54-.2-1.02-.2h-1.29c-.62.07-1.23.07-1.85.07-.62.07-1.16.07-1.64.07s-.96,0-1.29-.07h-.07c-.34-.07-.82-.07-1.29-.07Z"/><path class="cls-1" d="m266.95,69.07c-.2-.4-.47-1.09-.82-2.1-.4-.97-.82-2.12-1.29-3.42v-.07c-.55-1.29-1.11-2.74-1.64-4.17-.54-1.51-1.02-2.94-1.5-4.23-.34-.96-.69-1.85-.96-2.6-.27-.74-.49-1.43-.69-1.91-.13-.47-.27-.74-.34-.88q-.07,0-.07-.07c-.34-.49-.62-.62-.9-.42-.13,0-.27.07-.4.13l-.07.07c-.13.08-.27.28-.47.49-.13.2-.34.54-.55.94-.2.35-.34.63-.54.84-.07.07-.07.14-.07.2q-.07.07-.07.13c-.07.13-.07.27-.07.34v.13l-.07.07c0,.07,0,.2-.07.27v.07c-.35.75-.75,1.79-1.24,3.07-.47,1.24-1.02,2.53-1.58,3.98-.54,1.43-1.08,2.79-1.56,4.17-.47,1.29-.96,2.45-1.36,3.48-.34.96-.69,1.64-.89,2.06v.07c-.27.67-.54,1.15-.82,1.5-.2.34-.49.55-.75.62v.07c-.34.2-.81.34-1.36.47-.34.13-.61.34-.82.54h-.07c-.2.28-.34.55-.34.82-.07.34.13.55.47.75.15.13.49.22.96.22.22,0,.55,0,1.02-.08.4,0,.89,0,1.38-.07h3.07c.47.07.88.07,1.21.07s.63-.07.9-.13c.47-.2.76-.49.76-.89v-.07c.07-.34-.15-.62-.55-.89-.2-.13-.47-.27-.89-.34-.62-.2-.96-.4-1.16-.61-.07-.15-.13-.22-.13-.28v-.13c0-.28.07-.69.27-1.29h-.07c.2-.75.47-1.51.74-2.33.22-.81.49-1.64.84-2.39.27-.07.74-.07,1.36-.07h2.25c.74-.07,1.51-.07,2.18-.07.35,0,.55,0,.69.07.49,1.16.89,2.25,1.23,3.28.35,1.09.62,1.98.75,2.74.07.2.07.4.07.62q0,.07-.07.14t-.07.07c-.2.07-.47.2-.89.34-.47.07-.75.2-.96.4h-.07c-.27.27-.4.55-.34.75-.07.34.13.61.54.82v.07c.2.07.62.14,1.24.14h2.52c.82,0,1.65,0,2.45.07.82.08,1.58.08,2.2.08s1.02-.08,1.23-.22c.4-.2.61-.55.54-.89.07-.34-.13-.62-.47-.82-.2-.13-.49-.27-.82-.4h-.07c-.47-.07-.89-.2-1.24-.4-.27-.2-.54-.49-.74-.82-.34-.49-.62-1.16-.96-2.06Zm-9.49-12.28c.07-.27.2-.49.27-.69v.07c.2.62.47,1.29.81,2.18.28.89.55,1.71.84,2.45l.07.07c.2.55.34,1.04.47,1.44.2-.07.42-.07.62-.07-.2.27-.42.47-.49.54l.07-.4c-.07.07-.13.13-.13.2,0-.07,0-.2-.07-.27h-4.44c.07-.2.2-.54.27-.89.2-.69.47-1.43.82-2.25.27-.82.54-1.64.89-2.39Z"/><path class="cls-1" d="m187.35,49.82h-1.23c-.35.07-.62.13-.82.2-.42.2-.62.54-.62.88-.07.35.2.7.69.97.2.07.54.2,1.02.27.49.07.89.13,1.16.27v.07c.15.07.22.13.28.2.07.2.07.55.07.96v6.36c.07.88.07,1.64.07,2.32v3.48c-.07.84-.07,1.64-.07,2.4-.07.74-.07,1.44-.07,2.05-.07.61-.2,1.02-.42,1.36h-.07c-.27.35-.82.55-1.64.76-.27.07-.47.2-.69.34-.34.2-.54.48-.47.82-.07.4.14.76.62.96v.07c.2.07.54.15,1.02.15.62,0,1.23,0,1.91-.08.62-.07,1.23-.07,1.77-.07.75,0,1.51,0,2.13.07.61.08,1.16.08,1.63.08.35,0,.69,0,.96-.08l.07-.07c.55-.14.82-.42.82-.82v-.07c.07-.34-.13-.69-.49-.89v-.07c-.2-.13-.47-.27-.94-.34-.49-.2-.89-.34-1.16-.47-.2-.13-.35-.35-.35-.55l-.07-.07c-.07-.35-.13-.82-.13-1.56v-1.51c-.07-.75-.07-1.56-.07-2.6v-7.31c0-1.29,0-2.47.07-3.41v-1.85c.07-.42.07-.69.13-.89l-.07.07c.07-.07.07-.13,0-.13.07-.07.2-.07.35-.13.13-.07.27-.07.34-.07,1.02,0,1.97.27,2.72.74.82.55,1.44,1.23,1.93,2.06.47.81.67,1.7.67,2.72v.07c0,1.23-.2,2.26-.67,3.01-.48.76-.96,1.38-1.59,1.71-.61.34-1.16.47-1.7.47h-.96c-.34.07-.54.14-.67.27q-.07.07-.13.15c-.15.2-.22.4-.22.61,0,.27.13.55.35.75h.07c.07.15.27.28.54.35l.07.07c.35.07.76.13,1.16.2.4.07.76.07.96.07.89,0,1.78-.13,2.6-.47v-.07c.82-.35,1.5-.77,2.05-1.24h-.08c.42-.35.82-.75,1.24-1.23.49-.47.82-1.17,1.09-1.91.35-.82.49-1.78.49-2.94,0-.67-.13-1.51-.42-2.52-.34-1.04-.96-2-1.91-2.87v-.07c-.69-.69-1.63-1.24-2.86-1.64v-.07c-1.17-.4-2.68-.61-4.38-.61-.61,0-1.36.07-2.12.13-.76.07-1.44.07-2.18.14-.69.07-1.29.07-1.78.07Z"/><path class="cls-1" d="m207.78,50.76c-.07.35.15.62.49.9.13.2.47.34,1.09.4.54.07.94.2,1.23.4h-.07c.2.07.27.2.27.4.07.28.13.69.13,1.24,0,.27,0,.75.07,1.36,0,.69,0,1.44.07,2.18v7.52c-.07,1.09-.07,2.05-.13,2.94v.07c0,.88,0,1.51-.07,1.91v.07c-.07.47-.07.88-.13,1.16-.07.2-.2.42-.34.49-.28.2-.62.34-1.09.4-.49.07-.82.2-1.02.34-.34.2-.55.47-.55.82-.07.34.07.67.49.96h-.07c.2.13.61.2,1.09.2h4.23c.62.07,1.23.07,1.9.15h.08c.67.07,1.36.07,1.98.07.34,0,.62-.07.89-.22.47-.2.76-.49.76-.82v-.07c0-.34-.14-.69-.49-.89-.2-.2-.54-.34-1.02-.4l.07.07c-.67-.13-1.16-.34-1.51-.54-.2-.13-.4-.35-.47-.62-.13-.35-.2-.82-.2-1.43-.08-.62-.08-1.37-.08-2.33-.07-1.02-.07-2.05-.07-3.07,0-2.32,0-4.17.07-5.61,0-1.43,0-2.59.08-3.34,0-.74.07-1.29.14-1.64.07-.34.07-.61.13-.89.07-.14.13-.27.34-.4q0-.07.07-.07c.2-.2.55-.34,1.11-.47.47-.07.75-.13.96-.34.34-.2.54-.55.54-.9,0-.4-.2-.67-.54-.81-.2-.13-.55-.2-.96-.2-.62,0-1.24,0-1.86.07-.54.07-1.21.07-2.04.07-.4,0-.89,0-1.36-.07-.49,0-.97,0-1.44-.07h-1.16c-.34,0-.69.07-.89.13-.47.2-.76.47-.69.88Z"/><path class="cls-1" d="m166.59,51.87q-.07.07-.07.13c-.07.13-.07.27-.07.34v.13l-.08.07c0,.07,0,.2-.07.27v.07c-.34.75-.75,1.79-1.23,3.07-.49,1.24-1.02,2.53-1.56,3.98-.55,1.43-1.09,2.79-1.58,4.17-.47,1.29-.96,2.45-1.37,3.48-.4.96-.67,1.64-.89,2.06v.07c-.27.67-.54,1.15-.81,1.5-.2.34-.47.55-.75.62v.07c-.34.2-.82.34-1.36.47-.34.13-.62.34-.82.54h-.07c-.28.28-.42.55-.35.82-.07.34.13.55.49.75.13.13.49.22.96.22.2,0,.55,0,1.02-.08.42,0,.89,0,1.36-.07h3.09c.47.07.88.07,1.23.07s.61-.07.88-.13c.49-.2.75-.49.75-.89v-.07c.07-.34-.13-.62-.55-.89-.2-.13-.47-.27-.88-.34-.62-.2-.96-.4-1.16-.61-.07-.15-.13-.22-.13-.28v-.13c0-.28.07-.69.27-1.29h-.07c.2-.75.4-1.51.75-2.33.2-.81.47-1.64.81-2.39.27-.07.75-.07,1.36-.07h2.2c.82-.07,1.56-.07,2.25-.07.34,0,.54,0,.67.07.49,1.16.9,2.25,1.24,3.28.34,1.09.62,1.98.76,2.74.07.2.07.4.07.62,0,.07-.07.07-.13.14v.07c-.2.07-.49.2-.89.34-.49.07-.75.2-.97.4h-.07c-.27.27-.4.55-.34.75-.07.34.13.61.55.82v.07c.2.07.62.14,1.16.14h2.59c.82,0,1.64,0,2.47.07.82.08,1.58.08,2.18.08s1.02-.08,1.23-.22c.42-.2.62-.55.55-.89.07-.34-.13-.62-.55-.82-.2-.13-.4-.27-.75-.4h-.07c-.47-.07-.88-.2-1.21-.4-.28-.2-.55-.49-.76-.82-.35-.49-.62-1.16-.96-2.06-.2-.4-.49-1.09-.82-2.1-.42-.97-.89-2.12-1.38-3.42v-.07c-.47-1.29-1.01-2.74-1.56-4.17-.54-1.51-1.02-2.94-1.5-4.23-.35-.96-.7-1.85-.97-2.6-.27-.74-.47-1.43-.67-1.91-.15-.47-.28-.74-.35-.88q-.07,0-.07-.07c-.34-.49-.61-.62-.88-.42-.2,0-.35.07-.49.13v.07c-.13.08-.27.28-.47.49-.13.2-.35.54-.55.94-.2.35-.34.63-.54.84-.07.07-.07.14-.07.2Zm1.09,4.23v.07c.2.62.47,1.29.82,2.18.27.89.54,1.71.81,2.45v.07c.2.55.4,1.04.54,1.44.22-.07.42-.07.55-.07h.07c-.2.27-.4.47-.47.54l.07-.4c-.07.07-.15.13-.15.2-.07-.07-.07-.2-.07-.27h-4.44c.07-.2.2-.54.27-.89.2-.69.49-1.43.84-2.25.27-.82.54-1.64.88-2.39.08-.27.22-.49.28-.69Z"/><path class="cls-1" d="m237.37,52.54h4.1c.69.07,1.23.13,1.56.2.2.07.4.13.47.35h.07c.15.2.22.61.22,1.09.07.49.2.89.27,1.09v.07c.22.4.55.61.89.54h.07c.28,0,.55-.13.82-.4.2-.2.27-.47.35-.74v-.07c.07-.9.2-1.73.34-2.33.07-.61.27-1.16.47-1.71.07-.4.13-.74.07-.94-.2-.55-.47-.84-.81-.77-.22,0-.35.08-.55.22-.07,0-.2.07-.34.2-.2.07-.49.22-.75.35-.34.07-.82.13-1.38.2h-13.93c-1.44-.07-2.4-.13-2.87-.2-.2,0-.34-.07-.49-.2-.13-.08-.2-.15-.27-.22q-.07-.07-.13-.13c-.13-.07-.2-.13-.2-.22v-.07c-.27-.34-.55-.54-.82-.47q-.07,0-.07.07c-.2,0-.47.13-.69.34-.2.22-.34.49-.4.77v.07c0,1.01-.13,1.98-.34,2.79-.22.89-.28,1.58-.35,1.98v.07c0,.28.07.55.2.82l-.07-.07c.15.47.42.67.75.67h.13c.13.07.35,0,.62-.13.2-.07.47-.4.69-1.01.2-.49.47-.9.67-1.17.07-.2.13-.27.2-.34.07-.07.15-.07.22-.13.2-.22.4-.42.74-.49.35-.13.82-.2,1.43-.13h.84c.4,0,.88,0,1.36.07h1.36c.22,0,.42,0,.62.07v4.18c0,.74,0,1.63-.07,2.8,0,1.15,0,2.39-.07,3.61,0,1.29,0,2.45-.07,3.49,0,1.01,0,1.83-.07,2.45,0,.82-.07,1.5-.13,1.98-.08.34-.28.55-.49.75-.34.2-.89.4-1.64.61-.27.07-.47.13-.67.34-.35.27-.49.55-.49.82-.07.34.13.69.62.89.2.15.61.22,1.09.22h.07c.27,0,.82-.07,1.58-.15.74-.07,1.63-.07,2.52-.07h1.71c.61.07,1.09.07,1.56.07.4.08.69.08.82.08.27.07.55,0,.89-.08.49-.13.76-.4.82-.82v-.27c0-.27-.2-.55-.62-.82-.2-.13-.47-.27-.75-.34h-.07c-.69-.14-1.16-.27-1.5-.47h-.07c-.2-.13-.27-.28-.34-.42q-.08,0-.08-.07c-.07-.2-.13-.55-.2-1.02v-.07c-.07-.67-.07-1.78-.07-3.34-.07-1.58-.07-3.49-.07-5.61v-8.75c.13-.07.34-.07.69-.07Z"/><path class="cls-1" d="m137.07,49.96c-1.71.47-3.41,1.43-5.06,2.72h-.07c-.54.49-1.16,1.16-1.78,2.06-.61.88-1.23,1.91-1.71,3.13-.47,1.17-.67,2.53-.74,4.04.07,1.43.2,2.74.54,3.81.35,1.17.75,2.12,1.24,2.94v-.07c.47.82.94,1.51,1.43,2.05q.07,0,.07.07c.49.62,1.31,1.31,2.32,1.91v.07c1.04.62,2.18,1.23,3.63,1.71,1.43.49,3.01.76,4.85.76,1.02,0,2.05-.07,3.07-.2.96-.13,1.78-.27,2.4-.42h.07c.61-.2,1.08-.34,1.28-.42h.07c.22-.14.49-.27.77-.47.34-.27.54-.55.61-.76.2-.34.4-.74.61-1.21v.07c.22-.49.42-.97.62-1.44v-.07c.15-.47.28-.89.35-1.24.07-.27.07-.61,0-.96-.13-.61-.42-.88-.82-.94-.22-.2-.55-.07-.89.4h-.07c-.07.13-.27.4-.47.75l-.07.07c-.35.74-.84,1.38-1.31,1.91-.47.54-1.02,1.02-1.78,1.44-.75.34-1.43.61-2.12.67-.69.13-1.23.2-1.56.2-.96,0-2-.2-3.07-.61-1.04-.35-2.05-.97-3.07-1.71-1.04-.82-1.85-1.85-2.47-3.14v-.07c-.42-.75-.69-1.64-.89-2.53-.2-.96-.34-2.05-.34-3.21,0-1.7.4-3.36,1.16-4.77.69-1.44,1.7-2.68,3.07-3.57,1.29-.88,2.87-1.28,4.72-1.28h.07c.89-.07,1.77.07,2.67.34.88.2,1.83.67,2.72,1.36.22.2.42.47.62.89v-.07c.27.49.47,1.02.67,1.63.07.35.2.55.34.77.22.47.49.67.84.61.34.07.67-.14.94-.61.2-.28.28-.7.2-1.24,0-.34,0-.67-.07-1.02-.07-.42-.07-.82-.13-1.23,0-.35,0-.69-.07-.96,0-.54-.07-.96-.27-1.16q0-.08-.07-.08c-.27-.34-.54-.54-.74-.47-.28-.07-.63-.13-1.11-.27-.54-.2-1.09-.27-1.56-.34-.76-.2-1.51-.42-2.25-.49-.77-.07-1.51-.13-2.18-.13-1.73-.07-3.49.2-5.2.75Z"/></svg>